<?xml version="1.0" encoding="UTF-8"?>
<svg width="146px" height="72px" viewBox="0 0 146 72" version="1.1" xmlns="http://www.w3.org/2000/svg" xmlns:xlink="http://www.w3.org/1999/xlink">
    <title>brands / Azul COL</title>
    <g id="Symbols" stroke="none" stroke-width="1" fill="none" fill-rule="evenodd">
        <g id="brands-/-Azul-COL" fill="#213E7B">
            <path d="M0.14,0.72 L0.14,55 L145.14,55 L145.14,0.72 L0.14,0.72 Z M142.76,52.72 L2.49,52.72 L2.49,3.07 L142.76,3.07 L142.76,52.72 Z" id="Shape"></path>
            <polygon id="Path" points="96.15 26.69 81.9 26.69 81.9 11.48 79.65 11.48 79.65 28.94 98.4 28.94 98.4 11.48 96.15 11.48"></polygon>
            <polygon id="Path" points="46.32 28.78 63.5 28.78 63.5 26.53 51.16 26.53 63.62 11.64 46.48 11.64 46.48 13.9 58.79 13.9"></polygon>
            <polygon id="Path" points="131.87 26.69 117.09 26.69 117.09 11.48 114.84 11.48 114.84 28.94 131.87 28.94"></polygon>
            <polygon id="Path" fill-rule="nonzero" points="22.86 11.81 13.39 28.94 13.39 28.94 16.05 28.94 22.86 16.33 28.59 26.92 24.53 26.92 23.43 28.94 29.68 28.94 29.68 28.94 32.34 28.94 32.35 28.94"></polygon>
            <path d="M16.78,36.4 C18.41,36.4 19.42,37.14 19.42,38.4 C19.4287603,39.2426614 18.8290755,39.9690402 18,40.12 C18.9995651,40.2397463 19.7345839,41.1147686 19.68,42.12 C19.68,43.46 18.59,44.27 16.82,44.27 L13.32,44.27 L13.32,36.4 L16.78,36.4 Z M14.69,39.66 L16.69,39.66 C17.53,39.66 18.04,39.26 18.04,38.6 C18.04,37.94 17.53,37.6 16.69,37.6 L14.69,37.6 L14.69,39.66 Z M14.69,43.08 L16.69,43.08 C17.69,43.08 18.34,42.68 18.34,41.94 C18.34,41.2 17.72,40.83 16.69,40.83 L14.69,40.83 L14.69,43.08 Z" id="Shape" fill-rule="nonzero"></path>
            <polygon id="Path" fill-rule="nonzero" points="24.61 37.59 24.61 39.71 28.45 39.71 28.45 40.9 24.61 40.9 24.61 43.07 29 43.07 29 44.26 23.28 44.26 23.28 36.4 28.9 36.4 28.9 37.59"></polygon>
            <path d="M33.76,42.49 L33,44.26 L31.62,44.26 L35.09,36.4 L36.45,36.4 L39.89,44.26 L38.48,44.26 L37.72,42.49 L33.76,42.49 Z M35.76,37.81 L34.28,41.31 L37.28,41.31 L35.76,37.81 Z" id="Shape" fill-rule="nonzero"></path>
            <path d="M49.19,37.58 L48.42,38.58 C47.8552163,37.9642976 47.065174,37.6035477 46.23,37.58 C44.7001712,37.58 43.46,38.8201712 43.46,40.35 C43.46,41.8798288 44.7001712,43.12 46.23,43.12 C47.0510956,43.0969766 47.8332354,42.7648351 48.42,42.19 L49.21,43.07 C48.3936975,43.8712041 47.3034647,44.332319 46.16,44.36 C44.7309376,44.3510684 43.4151945,43.5804195 42.7083984,42.3383494 C42.0016022,41.0962792 42.0111322,39.5714879 42.7333984,38.3383494 C43.4556646,37.1052109 44.7809376,36.3510684 46.21,36.3599215 C47.3232323,36.3684592 48.3904357,36.805368 49.19,37.58 Z" id="Path" fill-rule="nonzero"></path>
            <polygon id="Path" fill-rule="nonzero" points="58 44.26 58 41 53.87 41 53.87 44.25 52.54 44.25 52.54 36.4 53.87 36.4 53.87 39.81 58 39.81 58 36.4 59.32 36.4 59.32 44.26"></polygon>
            <path d="M71.86,41.88 L69.63,41.88 L69.63,44.25 L68.31,44.25 L68.31,36.4 L71.5,36.4 C73.5,36.4 74.67,37.4 74.67,39.08 C74.7453211,40.2075796 74.0637049,41.2483708 73,41.63 L74.76,44.26 L73.3,44.26 L71.86,41.88 Z M71.5,40.7 C72.71,40.7 73.41,40.18 73.41,39.12 C73.41,38.06 72.71,37.59 71.5,37.59 L69.63,37.59 L69.63,40.7 L71.5,40.7 Z" id="Shape" fill-rule="nonzero"></path>
            <polygon id="Path" fill-rule="nonzero" points="79.75 37.59 79.75 39.71 83.59 39.71 83.59 40.9 79.75 40.9 79.75 43.07 84.17 43.07 84.17 44.26 78.42 44.26 78.42 36.4 84 36.4 84 37.59"></polygon>
            <path d="M93.12,37.15 L92.57,38.32 C91.8772187,37.8785636 91.0806433,37.626832 90.26,37.59 C89.49,37.59 88.98,37.88 88.98,38.41 C88.98,40.13 93.23,39.21 93.2200176,42.04 C93.2200176,43.44 91.98,44.31 90.22,44.31 C89.0296369,44.3026114 87.8835626,43.8577068 87,43.06 L87.57,41.92 C88.2911554,42.6068627 89.2352682,43.0114824 90.23,43.06 C91.16,43.06 91.71,42.71 91.71,42.06 C91.71,40.3 87.46,41.28 87.46,38.48 C87.46,37.14 88.62,36.29 90.32,36.29 C91.3168997,36.2996096 92.2895806,36.5983616 93.12,37.15 L93.12,37.15 Z" id="Path" fill-rule="nonzero"></path>
            <path d="M104.44,40.33 C104.509412,42.0312737 103.537519,43.6038648 101.984826,44.302645 C100.432133,45.0014253 98.6105578,44.6860175 97.3832031,43.5058688 C96.1558485,42.3257201 95.7692762,40.5179093 96.4066528,38.9390168 C97.0440294,37.3601243 98.5773129,36.3273322 100.28,36.33 C101.368307,36.2864325 102.42732,36.688547 103.212436,37.4434664 C103.997552,38.1983859 104.440872,39.2408214 104.44,40.33 Z M97.44,40.33 C97.4510083,41.8835348 98.7164361,43.1355481 100.27,43.1300184 C101.804172,43.107992 103.032671,41.8513126 103.019884,40.3170361 C103.007098,38.7827596 101.757825,37.5467298 100.223499,37.5502869 C98.6891733,37.5538593 97.4456572,38.7956807 97.44,40.33 L97.44,40.33 Z" id="Shape" fill-rule="nonzero"></path>
            <path d="M111.4,41.88 L109.17,41.88 L109.17,44.25 L107.85,44.25 L107.85,36.4 L111,36.4 C113,36.4 114.17,37.4 114.17,39.08 C114.251005,40.1970957 113.587878,41.2345039 112.54,41.63 L114.3,44.26 L112.8,44.26 L111.4,41.88 Z M111,40.7 C112.21,40.7 112.91,40.18 112.91,39.12 C112.91,38.06 112.21,37.59 111,37.59 L109.13,37.59 L109.13,40.7 L111,40.7 Z" id="Shape" fill-rule="nonzero"></path>
            <polygon id="Path" fill-rule="nonzero" points="120.84 37.59 120.84 44.26 119.51 44.26 119.51 37.59 117 37.59 117 36.4 123.3 36.4 123.3 37.59"></polygon>
            <path d="M131.79,37.15 L131.24,38.32 C130.550726,37.8789444 129.757463,37.6271696 128.94,37.59 C128.16,37.59 127.66,37.88 127.66,38.41 C127.66,40.13 131.91,39.21 131.89,42.04 C131.89,43.44 130.66,44.31 128.89,44.31 C127.699815,44.3016794 126.55406,43.8568989 125.67,43.06 L126.25,41.92 C126.994139,42.6270145 127.973894,43.0331675 129,43.06 C129.92,43.06 130.47,42.71 130.47,42.06 C130.47,40.3 126.23,41.28 126.23,38.48 C126.23,37.14 127.38,36.29 129.09,36.29 C130.052711,36.3185548 130.988123,36.616501 131.79,37.15 L131.79,37.15 Z" id="Path" fill-rule="nonzero"></path>
            <path d="M52.62,63.39 L54.41,63.39 C54.6521729,63.390796 54.893559,63.4176166 55.13,63.47 C55.3492289,63.5179591 55.5588228,63.6024728 55.75,63.72 C55.9277842,63.8412673 56.0749828,64.0021587 56.18,64.19 C56.2945474,64.4085868 56.3497187,64.6534095 56.34,64.9 C56.3473236,65.2055172 56.2522854,65.5047115 56.07,65.75 C55.8665629,65.9905171 55.5884424,66.1559812 55.28,66.22 L55.28,66.22 C55.6581897,66.2296142 56.0174056,66.3876692 56.28,66.66 C56.5313802,66.9541576 56.6602449,67.3335924 56.64,67.72 C56.634256,67.8623696 56.6107404,68.0034631 56.57,68.14 C56.5100081,68.3454885 56.4078343,68.5362128 56.27,68.7 C56.0805654,68.9026858 55.852847,69.0658273 55.6,69.18 C55.2350564,69.3270061 54.8431472,69.3951643 54.45,69.38 L52.62,69.38 L52.62,63.39 Z M53.23,66 L54.46,66 C54.606009,66.0196433 54.753991,66.0196433 54.9,66 C55.0385981,65.9607235 55.1701918,65.8999879 55.29,65.82 C55.4039005,65.7292502 55.4990091,65.6171579 55.57,65.49 C55.64775,65.3386825 55.6856106,65.1700311 55.68,65 C55.6913147,64.9137026 55.6913147,64.8262974 55.68,64.74 C55.6522394,64.6143814 55.5938385,64.4975796 55.51,64.4 C55.4086398,64.2740352 55.278248,64.1745257 55.13,64.11 C54.8997465,64.012678 54.6487081,63.9748503 54.4,64 L53.23,64 L53.23,66 Z M53.23,68.82 L54.4,68.82 C54.6088054,68.8231854 54.8171612,68.7996613 55.02,68.75 C55.197367,68.7140417 55.366763,68.6462833 55.52,68.55 C55.6549259,68.4554887 55.7675559,68.3326196 55.85,68.19 C55.9453977,68.0441692 55.9974159,67.8742432 56,67.7 C56.0313312,67.361115 55.8881595,67.0295595 55.62,66.82 C55.2867074,66.6073728 54.8946021,66.5058456 54.5,66.53 L53.23,66.53 L53.23,68.82 Z" id="Shape" fill-rule="nonzero"></path>
            <path d="M59.24,68.71 L60.45,65.43 L61.13,65.43 L59.13,70.43 C59.0302966,70.7009632 58.8772815,70.9491877 58.68,71.16 C58.4635053,71.3522577 58.1788795,71.4495349 57.89,71.43 L57.63,71.43 C57.5416236,71.4239601 57.454313,71.4071696 57.37,71.38 L57.43,70.84 C57.5610591,70.9023625 57.7048951,70.9331845 57.85,70.93 C58.0275168,70.9421115 58.2007705,70.8720727 58.32,70.74 C58.4487193,70.5849017 58.5501617,70.4090681 58.62,70.22 L58.9,69.45 L57.27,65.45 L58,65.45 L59.24,68.71 Z" id="Path" fill-rule="nonzero"></path>
            <polygon id="Path" fill-rule="nonzero" points="65 66 65.09 66 67.92 63.39 68.79 63.39 65.79 66.12 69 69.4 68.1 69.4 65.1 66.3 65 66.3 65 69.4 64.39 69.4 64.39 63.4 65 63.4"></polygon>
            <path d="M72.1,67 L72.1,66.89 C72.1325803,66.6160851 72.0377481,66.3423567 71.8426957,66.1473043 C71.6476433,65.9522519 71.3739149,65.8574197 71.1,65.89 C70.6528757,65.8840532 70.220252,66.0485217 69.89,66.35 L69.55,65.95 C70.0082993,65.537929 70.6155683,65.3318912 71.23,65.38 C71.4194204,65.381288 71.6077958,65.4081987 71.79,65.46 C71.9586489,65.5162284 72.114845,65.6045131 72.25,65.72 C72.3831217,65.843238 72.488754,65.9931677 72.56,66.16 C72.6455656,66.3587051 72.6865272,66.5737534 72.68,66.79 L72.68,68.56 C72.68,68.71 72.68,68.87 72.68,69.04 C72.68,69.21 72.68,69.34 72.68,69.45 L72.14,69.45 C72.1338579,69.3467579 72.1338579,69.2432421 72.14,69.14 C72.14,69.02 72.14,68.91 72.14,68.81 L72.14,68.81 C71.9997108,69.0473508 71.7997545,69.2438595 71.56,69.38 C71.3045824,69.5025782 71.0230971,69.5609349 70.74,69.55 C70.5674323,69.5526902 70.3954611,69.5290864 70.23,69.48 C70.0714979,69.4332115 69.9225321,69.3587285 69.79,69.26 C69.6665502,69.1616589 69.5644675,69.0391596 69.49,68.9 C69.4083546,68.7425711 69.3671184,68.5673176 69.37,68.39 C69.356922,68.1145273 69.4459396,67.843914 69.62,67.63 C69.7944627,67.4452445 70.0104217,67.3046997 70.25,67.22 C70.4893365,67.1142744 70.7414759,67.0403135 71,67 L71.78,67 L72.1,67 Z M71.81,67.45 L71.28,67.45 C71.0733231,67.4580727 70.8684365,67.4916607 70.67,67.55 C70.4864769,67.5941889 70.315465,67.6796949 70.17,67.8 C70.0308156,67.911201 69.9528457,68.0819922 69.96,68.26 C69.9579385,68.3782268 69.9854372,68.4950965 70.04,68.6 C70.0971885,68.6906278 70.1720022,68.7688421 70.26,68.83 C70.3521908,68.8894984 70.4535452,68.9334186 70.56,68.96 C70.6730982,68.9703244 70.7869018,68.9703244 70.9,68.96 C71.0818387,68.9656321 71.2627153,68.9315045 71.43,68.86 C71.5717897,68.7934417 71.7004937,68.7019942 71.81,68.59 C71.9083474,68.4683068 71.9829733,68.3292311 72.03,68.18 C72.07916,68.0179804 72.1027766,67.8492907 72.1,67.68 L72.1,67.39 L71.81,67.45 Z" id="Shape" fill-rule="nonzero"></path>
            <path d="M74,66.67 C74,66.49 74,66.32 74,66.13 C74,65.94 74,65.72 74,65.43 L74.55,65.43 L74.55,66.17 L74.55,66.17 C74.584758,66.0580902 74.6389152,65.9531605 74.71,65.86 C74.7897002,65.760258 74.880258,65.6697002 74.98,65.59 C75.0934144,65.5089728 75.2180659,65.4449625 75.35,65.4 C75.5013932,65.3494675 75.6604519,65.3257779 75.82,65.33 C75.9557199,65.3072494 76.0942801,65.3072494 76.23,65.33 L76.12,65.88 C76.0142094,65.8606665 75.9057906,65.8606665 75.8,65.88 C75.6096704,65.8750427 75.4209675,65.9162142 75.25,66 C75.1046763,66.0780843 74.975679,66.1833189 74.87,66.31 C74.7704299,66.4361822 74.6926886,66.5781446 74.64,66.73 C74.5933814,66.86511 74.5697208,67.0070737 74.57,67.15 L74.57,69.4 L74,69.4 L74,66.67 Z" id="Path" fill-rule="nonzero"></path>
            <path d="M77.59,63.9 C77.5950102,64.0096834 77.5510475,64.1159267 77.47,64.19 C77.395542,64.2644758 77.2952811,64.3074447 77.19,64.31 C77.084016,64.3107982 76.9825144,64.2672975 76.91,64.19 C76.8227474,64.1197131 76.7744184,64.0119022 76.78,63.9 C76.7760104,63.7884028 76.8240344,63.6812725 76.91,63.61 C76.9825144,63.5327025 77.084016,63.4892018 77.19,63.49 C77.2952811,63.4925553 77.395542,63.5355242 77.47,63.61 C77.5499154,63.6848616 77.5936521,63.7905587 77.59,63.9 L77.59,63.9 Z M77.47,69.4 L76.91,69.4 L76.91,65.4 L77.47,65.4 L77.47,69.4 Z" id="Shape" fill-rule="nonzero"></path>
            <path d="M80.92,66.37 C80.8371913,66.2162558 80.7210177,66.0829979 80.58,65.98 C80.4240295,65.883619 80.2432775,65.834955 80.06,65.84 L79.77,65.84 C79.6740877,65.8600345 79.5826061,65.8973047 79.5,65.95 C79.4252858,65.996715 79.3606824,66.0579182 79.31,66.13 C79.1809206,66.3559702 79.2313718,66.6418606 79.43,66.81 C79.6138163,66.9140269 79.8129505,66.9882803 80.02,67.03 L80.59,67.16 C80.8520343,67.2169392 81.0918039,67.3489862 81.28,67.54 C81.4635286,67.7303421 81.5642028,67.985623 81.56,68.25 C81.5635355,68.4457466 81.5152356,68.6389462 81.42,68.81 C81.3373914,68.9611236 81.2210431,69.0911599 81.08,69.19 C80.9269879,69.291107 80.7579182,69.3654977 80.58,69.41 C80.3925971,69.4497272 80.2015674,69.4698356 80.01,69.47 C79.7176459,69.4761537 79.4274985,69.4181243 79.16,69.3 C78.8826183,69.1661152 78.6473807,68.9585526 78.48,68.7 L79,68.4 C79.1033041,68.5784394 79.2515606,68.7266959 79.43,68.83 C79.6005652,68.9384147 79.7979139,68.997273 80,69 C80.1131279,69.0096508 80.2268721,69.0096508 80.34,69 C80.4444741,68.9722469 80.5452062,68.9319541 80.64,68.88 C80.7242144,68.8258259 80.7958259,68.7542144 80.85,68.67 C80.9107243,68.5819155 80.9422095,68.4769647 80.94,68.37 C80.9518653,68.1944783 80.8625837,68.0275605 80.71,67.94 C80.5437173,67.8485247 80.365261,67.7811827 80.18,67.74 L79.64,67.61 L79.36,67.52 C79.240081,67.477592 79.1258778,67.4204904 79.02,67.35 C78.9091181,67.2639848 78.8143245,67.1590348 78.74,67.04 C78.6559421,66.894353 78.614371,66.7280688 78.62,66.56 C78.615885,66.3761611 78.657098,66.1941369 78.74,66.03 C78.8171982,65.8809216 78.930686,65.7536778 79.07,65.66 C79.213285,65.5609403 79.3721492,65.4865783 79.54,65.44 C79.7191943,65.3912449 79.9043059,65.3676852 80.09,65.37 C80.355229,65.3668997 80.617962,65.4214936 80.86,65.53 C81.1026422,65.6424715 81.2975285,65.8373578 81.41,66.08 L80.92,66.37 Z" id="Path" fill-rule="nonzero"></path>
            <path d="M82.43,66.31 C82.43,66.17 82.43,66.02 82.43,65.87 L82.43,65.43 L83,65.43 L83,66 L83,66 C83.12672,65.7716044 83.3228564,65.5894778 83.56,65.48 C83.782575,65.364398 84.0292094,65.3027394 84.28,65.3 L84.62,65.3 C84.7413124,65.3248897 84.8589364,65.365218 84.97,65.42 C85.0894819,65.4854836 85.1975518,65.5699132 85.29,65.67 C85.4005907,65.7918662 85.4856022,65.9346856 85.54,66.09 C85.6581666,65.8419723 85.8457469,65.6335498 86.08,65.49 C86.687306,65.1404776 87.4491344,65.2126508 87.98,65.67 C88.2389398,65.995171 88.3673037,66.4052224 88.34,66.82 L88.34,69.4 L87.78,69.4 L87.78,67.08 C87.7999011,66.7595218 87.7269898,66.4401009 87.57,66.16 C87.3817642,65.921162 87.081389,65.7994911 86.78,65.84 C86.5989966,65.8321564 86.4192626,65.8736335 86.26,65.96 C86.1164113,66.0374015 85.9957068,66.1512086 85.91,66.29 C85.8187056,66.430233 85.7542776,66.5862166 85.72,66.75 C85.6791892,66.9270748 85.6590546,67.1082856 85.66,67.29 L85.66,69.4 L85.1,69.4 L85.1,67.08 C85.1199011,66.7595218 85.0469898,66.4401009 84.89,66.16 C84.7017642,65.921162 84.401389,65.7994911 84.1,65.84 L83.87,65.84 C83.7299857,65.8721003 83.5996889,65.9372487 83.49,66.03 C83.3387259,66.1536213 83.2188013,66.3112364 83.14,66.49 C83.0188165,66.7527154 82.9638801,67.0411316 82.98,67.33 L82.98,69.33 L82.42,69.33 L82.43,66.31 Z" id="Path" fill-rule="nonzero"></path>
            <path d="M92.21,67 L92.21,66.89 C92.2425803,66.6160851 92.1477481,66.3423567 91.9526957,66.1473043 C91.7576433,65.9522519 91.4839149,65.8574197 91.21,65.89 C90.7696892,65.8712629 90.3382256,66.0174613 90,66.3 L89.67,65.9 C90.1282993,65.487929 90.7355683,65.2818912 91.35,65.33 C91.5361631,65.3309389 91.7212835,65.3578655 91.9,65.41 C92.0686489,65.4662284 92.224845,65.5545131 92.36,65.67 C92.4960628,65.7928548 92.605044,65.9427039 92.68,66.11 C92.7655656,66.3087051 92.8065272,66.5237534 92.8,66.74 L92.8,68.51 C92.7903913,68.6698557 92.7903913,68.8301443 92.8,68.99 C92.8,69.16 92.8,69.29 92.8,69.4 L92.26,69.4 C92.2538579,69.2967579 92.2538579,69.1932421 92.26,69.09 C92.26,68.97 92.26,68.86 92.26,68.76 L92.26,68.76 C92.1224288,68.999464 91.9218201,69.1966139 91.68,69.33 C91.4252575,69.4545634 91.1432669,69.5130249 90.86,69.5 C90.6875152,69.5013612 90.5157393,69.4777841 90.35,69.43 C90.1937267,69.3853201 90.0476671,69.3105919 89.92,69.21 C89.6399138,69.0113449 89.4813427,68.6828761 89.5,68.34 C89.4819235,68.0638703 89.5715272,67.7914753 89.75,67.58 C89.9209195,67.3910452 90.1380169,67.2497596 90.38,67.17 C90.6376558,67.0770791 90.9068232,67.0198811 91.18,67 L91.97,67 L92.21,67 Z M91.92,67.45 L91.39,67.45 C91.1832388,67.45723 90.9782473,67.4908352 90.78,67.55 C90.5948814,67.5897316 90.4228565,67.6757441 90.28,67.8 C90.1408156,67.911201 90.0628457,68.0819922 90.07,68.26 C90.0679385,68.3782268 90.0954372,68.4950965 90.15,68.6 C90.2012911,68.6950736 90.2772987,68.7745362 90.37,68.83 C90.4621908,68.8894984 90.5635452,68.9334186 90.67,68.96 C90.7785678,68.9832627 90.8890184,68.9966507 91,69 C91.1819147,69.0066246 91.3630062,68.9724563 91.53,68.9 C91.6732281,68.8359321 91.8023721,68.7441718 91.91,68.63 C92.0119885,68.5107609 92.0870314,68.3709083 92.13,68.22 C92.1823907,68.0584799 92.2093789,67.8898032 92.21,67.72 L92.21,67.43 L91.92,67.45 Z" id="Shape" fill-rule="nonzero"></path>
        </g>
    </g>
</svg>