<?xml version="1.0" encoding="UTF-8"?>
<svg width="145px" height="70px" viewBox="0 0 145 70" version="1.1" xmlns="http://www.w3.org/2000/svg" xmlns:xlink="http://www.w3.org/1999/xlink">
    <title>brands / el Dorado COL</title>
    <g id="Symbols" stroke="none" stroke-width="1" fill="none" fill-rule="evenodd">
        <g id="brands-/-el-Dorado-COL" fill-rule="nonzero">
            <g>
                <path d="M20.54,42.9 C18.078564,46.3188461 14.0809347,48.2933078 9.87,48.17 L5.67,48.17 L11.33,39.57 L12.78,39.57 C13.54,39.57 15.29,39.49 15.87,40.5 C16.32,41.26 15.74,42.5 14.92,43.78 C14.76,44.01 15.08,44.25 15.26,43.96 L20.54,36 C20.5792992,35.9392648 20.5832114,35.8621774 20.5502628,35.7977757 C20.5173142,35.733374 20.4525106,35.6914422 20.3802628,35.6877757 C20.308015,35.6841091 20.2392992,35.7192648 20.2,35.78 C17.61,39.07 16.26,39 13,39 L11.56,39 L16,32.49 L20,32.49 C20.74,32.49 22.78,32.35 23.31,33.33 C23.84,34.31 22.94,35.84 22.1,37.33 C21.96,37.6 22.25,37.73 22.41,37.52 L25.82,32.36 C25.98,32.12 25.82,32.07 25.66,32.07 L11,32.07 C10.77,32.07 10.79,32.42 11,32.42 C12.85,32.42 13.33,32.47 13.46,32.84 C13.59,33.21 13.22,33.68 12.54,34.72 L5,46 C3.73,47.9 3,48.3 0.19,48.3 C-0.02,48.3 0.03,48.64 0.19,48.64 L17.19,48.64 L20.86,43.09 C21.02,42.88 20.7,42.69 20.54,42.9 M25.54,48.32 C24.11,48.32 23.98,47.51 24.46,46.71 C24.83,46.08 29.73,36.85 34.82,32.17 C37.6411158,29.3315764 41.4586312,27.7062621 45.46,27.64 C47.2259932,27.5684192 48.9801965,27.9578592 50.55,28.77 C50.8457642,28.9589636 51.1530275,29.1292944 51.47,29.28 C51.55,29.28 51.63,29.28 51.64,29.16 C51.64,28.87 51.13,28.58 50.82,28.4 C49.1906193,27.539001 47.3610627,27.1282137 45.52,27.21 C41.52,27.21 37.14,29.14 33.45,31.99 C28.31,35.99 23.84,44.07 22.21,46.49 C21.42,47.67 21.05,48.18 19.44,48.32 C19.26,48.32 19.26,48.66 19.44,48.66 L25.54,48.66 C25.78,48.66 25.72,48.32 25.54,48.32 M61.98,49.32 C57,54.93 49.17,56 43.74,56 C45,53.38 51.23,32.43 62.67,27.61 C63.516448,28.6302394 64.2537975,29.7362636 64.87,30.91 C65.7217134,32.6334015 66.285826,34.4845016 66.54,36.39 C67.38,43.93 62.32,49.01 62,49.39 M63.81,26.66 L63.88,26.74 L63.76,26.6 L63.76,26.6 L63.76,26.6 C60.0875485,22.2422179 55.0018957,19.3118627 49.39,18.32 C45.6452262,17.6425405 41.7971063,17.7996066 38.12,18.78 L38.12,18.78 C34.95,19.57 32.53,20.91 31.12,22.78 C31,22.96 30.84,23.11 30.72,23.28 C30.6385632,23.3880283 30.5775605,23.5100336 30.54,23.64 C30.54,23.78 30.4,24.12 30.61,24.18 C30.82,24.24 31,24 31,23.91 C31.3,23.46 31.23,23.49 31.51,23.08 C32.5828014,21.65181 34.0815284,20.6013005 35.79,20.08 C39.6998882,18.8409108 43.8521919,18.56981 47.89,19.29 C53.4639248,20.2045742 58.5583869,22.9952386 62.33,27.2 C51.41,29.25 42.25,53.74 41,55.86 C39.871934,55.7889074 38.7496138,55.6452771 37.64,55.43 C37.26,55.36 34.41,54.75 33.98,53.3 C33.93,53.11 33.91,53.07 33.82,53.07 C33.73,53.07 33.66,53.24 33.7,53.4 C34.0063559,54.2915363 34.6691123,55.0158603 35.53,55.4 C37.53,56.4 42.28,56.98 47.63,56.58 C51.04,56.32 64.52,54.38 67.76,43.36 C69.76,36.45 67.45,31.3 63.76,26.63 M131.3,47.86 C130.486023,50.7568869 128.410847,53.1332387 125.65,54.33 C124.815626,54.7531878 123.855212,54.8563434 122.95,54.62 C122.37162,54.2165769 122.027839,53.5551729 122.02999,52.85 C122.097179,50.6190796 123.208039,48.5491771 125.03,47.26 C126.190833,46.2291061 127.600628,45.5190384 129.12,45.2 C129.743647,45.0640083 130.394283,45.2434942 130.86,45.68 C131.33971,46.2982606 131.492321,47.1097061 131.27,47.86 M127.13,44.79 C126.057835,44.9881282 125.015838,45.3242562 124.03,45.79 C121.59,47.04 119.89,48.85 119.6,51.26 C119.403858,52.4306102 119.873862,53.6133249 120.82,54.33 C122.59,55.77 126.17,55.18 127.5,54.81 C129.75,54.07 132.78,52.18 133.56,49.49 C133.919375,48.3858795 133.697501,47.1749725 132.97,46.27 C131.49,44.6 129.05,44.42 127.13,44.79 M95.13,54.26 C94.6205831,54.5717719 93.9794169,54.5717719 93.47,54.26 C93.1375551,53.8870889 93.0238243,53.3677185 93.17,52.89 C93.65,50.19 97.42,46.53 99.86,45.5 C100.41,45.27 101.08,45.05 101.56,45.5 C101.935788,45.814404 102.068647,46.3337639 101.89,46.79 C101.52,48.79 97.42,53.3 95.13,54.27 M103.28,54.27 C102.94625,54.4435553 102.589256,54.5681664 102.22,54.64 C101.823923,54.7267505 101.417751,54.543973 101.22,54.19 C100.67,53.34 102.15,51.27 103.51,49.27 L106.14,45.39 C106.43,44.99 106.32,44.65 105.73,44.65 L104.66,44.65 C103.99,44.65 103.88,44.76 103.51,45.28 L102.59,46.46 C102.33,45.35 101.92,44.91 101.04,44.73 C99,44.24 95,46 92.7,48.38 C91.3379855,49.614417 90.6974495,51.4568999 91,53.27 C91.1397785,54.1565012 91.7722589,54.8859877 92.63,55.15 C94.73,55.67 97.5,53.9 99.27,51.82 C99.0669899,52.682127 99.1731665,53.5881672 99.57,54.38 C100.070006,55.0823421 100.932796,55.4298007 101.78,55.27 C102.409517,55.1935921 103.021523,55.0110047 103.59,54.73 C103.9,54.44 103.71,54.08 103.36,54.23 M87.72,49.75 C90.34,45.57 98.47,39.64 103.57,42.49 C104.14,42.81 104.46,43.11 104.89,43.32 C104.99,43.38 105.6,43.24 105.01,42.75 C102.26,40.42 95.46,39.98 89.27,46.36 C89.27,46.36 89.48,46.06 89.11,45.54 C88.47,44.54 86.23,44.83 85.18,45.02 L83.12,45.32 C82.9874517,45.3420914 82.8979086,45.4674517 82.92,45.6 C82.9420914,45.7325483 83.0674517,45.8220914 83.2,45.8 L85.2,45.54 C86.44,45.35 86.96,45.32 87.2,45.54 C87.44,45.76 87.42,46.06 86.9,46.91 L83.72,52 C83.01,52.78 82.25,54.48 79.72,54.55 C79.46,54.55 79.46,55.03 79.72,55.03 L87.7,55.03 C88.03,55.03 87.96,54.55 87.7,54.55 C85.7,54.55 85.32,53.43 86.15,52.29 L87.72,49.75 Z M115.5,47.53 C114.91,48.9 110.59,54.34 108.7,54.53 C108.26421,54.6372003 107.810375,54.4409474 107.59,54.05 C107.22,53.31 107.59,51.76 108.04,50.94 C109.18,48.69 112.36,45.58 114.53,45.21 C114.952818,45.0929693 115.40475,45.2383732 115.68,45.58 C116.01,46.03 115.83,46.76 115.5,47.5 M144.74,33 C144.643366,32.9057444 144.531876,32.8280389 144.41,32.77 C144.22,32.68 144.02,32.63 143.82,32.53 C140.31,30.9 134.95,31.93 129.05,35.15 C124.206743,37.9655897 119.935918,41.666519 116.46,46.06 C116.273596,45.3345108 115.678338,44.7862465 114.94,44.66 C113.13,44.29 109.4,45.66 107.19,48.1 C105.67,49.72 104.93,51.57 105.38,53.1 C105.654331,54.0686201 106.41138,54.8256687 107.38,55.1 C109.45,55.66 111.29,53.62 113.38,51.4 C113.214616,52.3249669 113.373566,53.2786694 113.83,54.1 C114.313938,54.8779038 115.198526,55.3124383 116.11,55.22 C117.117582,55.0998977 118.070798,54.6978141 118.86,54.06 C118.86,54.06 118.86,53.78 118.51,53.83 C118.276245,53.8653761 118.051879,53.9469637 117.85,54.07 C117.425812,54.3507796 116.914126,54.4680411 116.41,54.4 C115.984524,54.3261852 115.632427,54.0276675 115.49,53.62 C114.86,51.92 117.11,48.71 119.03,46.08 C121.929317,42.054925 125.517968,38.57461 129.63,35.8 C134.8,32.54 140.63,31.32 143.63,32.99 C144.08,33.21 144,33.21 144.48,33.47 C144.59,33.53 144.83,33.59 144.94,33.47 C145.05,33.35 144.84,33.07 144.74,32.96 M78.74,47.8 C77.9260226,50.6968869 75.8508468,53.0732387 73.09,54.27 C72.2592785,54.6934152 71.3018787,54.7966293 70.4,54.56 C69.8230409,54.1542008 69.476861,53.4953423 69.47,52.79 C69.541814,50.5603218 70.6516364,48.4923528 72.47,47.2 C73.6357335,46.1706349 75.0483074,45.4609027 76.57,45.14 C77.1936469,45.0040083 77.8442834,45.1834942 78.31,45.62 C78.7878179,46.2393156 78.9368229,47.0513925 78.71,47.8 M80.41,46.21 C78.93,44.54 76.5,44.36 74.58,44.73 C73.5074451,44.9265837 72.4652513,45.2627752 71.48,45.73 C69.04,46.98 67.34,48.8 67.04,51.2 C66.8484698,52.3701146 67.3175561,53.5505201 68.26,54.27 C70.03,55.71 73.62,55.12 74.95,54.75 C77.2,54.01 80.23,52.12 80.95,49.43 C81.3093749,48.3258795 81.0875007,47.1149725 80.36,46.21" id="Shape" fill="#717373"></path>
                <path d="M109,28 C108.61,27.64 108.78,26.8 109,26.3 C108.813109,26.5228408 108.673603,26.7814381 108.59,27.06 C108.3,27.36 108.23,27.06 108.09,26.87 C107.8,26.22 108.35,26.04 108.3,25.28 C107.96,25.45 108.01,25.74 107.79,26.02 C107.57,26.3 107.86,24.79 107.9,24.42 C107.588794,24.7209535 107.390992,25.1200908 107.34,25.55 C106.81,25.29 107.23,24.19 107.01,23.76 C107.01,23.98 106.67,24.9 106.51,24.64 C106.320042,24.0860436 106.218794,23.5055547 106.21,22.92 C105.88,23.09 106.09,23.59 105.87,23.87 C105.65,24.15 105.58,23.38 105.58,23.38 C105.445296,22.9527496 105.424612,22.4977091 105.52,22.06 C105.02,22.32 105.14,23.06 105.14,23.06 L104.67,22.27 C104.67,22.27 104.76,20.54 104.54,21.14 C104.436884,21.4016082 104.379384,21.6789594 104.37,21.96 C104.37,21.96 104.37,21.9 104.37,21.85 C104.18,22.05 104,21.73 104,21.73 C104,21.73 103.56,21.29 103.37,21.41 C103.62,21.84 107.07,25.52 107.3,30.41 C107.234233,30.2944792 107.120755,30.2139468 106.99,30.19 C106.773777,30.1576924 106.559964,30.1109208 106.35,30.05 C106.240617,30.0143388 106.143548,29.9484709 106.07,29.86 C105.920955,29.5206192 105.879089,29.1438204 105.95,28.78 C105.72,28.84 105.39,29.48 105.18,29.24 C105.095651,28.707563 105.055514,28.1690582 105.06,27.63 C104.987065,27.7739207 104.906965,27.9140965 104.82,28.05 C104.76,28.21 104.69,28.38 104.64,28.55 C104.535936,28.3579971 104.448935,28.1572258 104.38,27.95 C104.472158,27.5944824 104.505931,27.2263515 104.48,26.86 C104.35324,27.0849404 104.212983,27.3020038 104.06,27.51 L104.06,27.6 C103.786259,27.3132402 103.575125,26.9727015 103.44,26.6 L103.59,25.39 C103.59,25.39 103.2,26.21 103.05,26.02 C102.9,25.83 102.96,25.78 102.94,25.33 C102.94,25.13 102.94,24.54 102.94,24.52 C102.94,24.5 102.69,25.52 102.69,25.52 C102.69,25.52 102.26,23.95 101.92,23.8 C101.92,24.08 101.86,24.37 101.82,24.67 C101.329438,28.6452954 100.383218,32.5509666 99,36.31 C103.319294,35.221993 107.081783,32.5711481 109.56,28.87 C109.552666,28.8303362 109.552666,28.7896638 109.56,28.75 C109.21,28.17 109.83,27.48 109.92,26.75 C109.636236,27.1830477 109.329116,27.6003314 109,28 M112.56,18.21 C112.36,17.84 112.2,17.45 112.05,17.21 C111.9,17.84 112.25,18.14 112.24,18.87 C111.87,18.8 111.68,18.27 111.24,17.56 C111.03,17.56 111.07,18.56 111.05,18.8 C110.58,18.41 110.52,18.8 109.9,17.12 C109.767431,17.0169862 109.640577,16.9068228 109.52,16.79 C109.52,16.79 109.79,17.91 109.91,18.23 C109.53,18.49 108.2,17.82 108.2,17.82 C108.188349,17.3661217 108.117758,16.9156825 107.99,16.48 C107.69,16.72 107.78,17.57 107.78,17.58 L107.2,17.43 C107.2,17.43 107.2,17.48 107.2,17.51 C107.186667,17.478 107.186667,17.442 107.2,17.41 C107.121632,16.9449184 106.92539,16.5076781 106.63,16.14 C106.659101,16.4392943 106.659101,16.7407057 106.63,17.04 C106.63,17.04 106.08,16.62 105.82,16.66 C105.74,16.33 105.57,16.32 105.32,16.18 C105.25,16.62 105.14,16.41 105.39,16.6 L105.51,16.68 C107.82757,17.9159366 109.607852,19.9632611 110.51,22.43 C110.95425,23.5553659 111.158612,24.7610982 111.11,25.97 C111.11,25.97 111.11,26.14 111.11,26.16 C112.135715,23.8557912 112.667137,21.3621936 112.67,18.84 C112.67,18.59 112.55,18.49 112.54,18.24 M98.77,24.76 C98.698192,24.8721202 98.6143624,24.9760689 98.52,25.07 C98.41,25.17 97.98,24.14 97.82,24.22 C97.981572,24.4944134 98.0516189,24.813127 98.02,25.13 C97.6,25.42 97.16,26 97.1,25.99 C96.74,25.9 96.88,25.32 96.61,24.26 C96.09,24.65 96.37,25.64 96.32,26.6 C95.19,27.47 95.58,26.1 95.32,25.71 C94.67,25.94 95.09,26.63 94.85,27.35 C94.46,27.89 94.35,27.57 94.25,27.04 C93.56,27.54 94.04,27.58 93.77,28.58 C93.41,27.87 93.31,27.83 93.2,29.28 C92.73,30.12 92.7,29.12 92.74,28.72 C92.49,29.03 92.74,29.72 92.44,30.42 C92.44,30.61 92.2,30.09 92.07,30.22 C92.0172076,30.5004545 91.9871101,30.7847085 91.98,31.07 C91.52,31.91 91.22,31.45 91.26,31.07 C91.07,31.2 91.26,32.25 91.17,32.38 C90.9842432,32.6851106 90.7223404,32.9366751 90.41,33.11 C90.3125637,29.2388932 91.9083563,25.5178115 94.78,22.92 C94.78,22.82 95.67,22.08 95.68,22 C95.68,21.75 94.91,22.23 94.84,22.29 C94.5924773,22.5723357 94.3870237,22.8889363 94.23,23.23 C93.71,23.57 93.89,22.78 94.06,22.23 L93.62,22.91 C93.5602309,23.2969709 93.4018099,23.6620279 93.16,23.97 L92.6,24.11 C91.94,24.27 92.6,22.47 92.34,22.42 C92.08,22.37 91.94,23.98 91.34,24.37 C91.15,24.51 90.93,23.37 90.71,23.53 C90.49,23.69 89.84,24.82 89.64,24.97 C89.44,25.12 89.3,24.36 89.07,24.53 C88.7354624,24.8189742 88.4456416,25.1559752 88.21,25.53 C88.21,25.23 87.98,24.95 87.73,25.01 C87.3955786,25.4677861 86.9326475,25.8158546 86.4,26.01 C87.8177941,22.7727811 90.4825106,20.2450865 93.79,19 C94.868815,18.7408136 95.9650332,18.5603386 97.07,18.46 C97.07,18.46 96.63,18.38 96.72,18.29 C97.11,17.7 95.23,18.51 94.94,18.46 C94.65,18.41 95.26,17.85 95.09,17.82 C94.92,17.79 94.38,18.46 94.21,18.58 C94.04,18.7 93.8,18.58 93.65,18.46 C93.5,18.34 93.8,17.71 93.86,17.55 C93.32,17.76 93.1,18.61 92.78,18.55 C92.46,18.49 92.67,17.8 92.78,17.45 C92.06,17.09 92.27,17.94 91.96,18.45 L90.96,18.23 L90.96,17.09 L90,18 C90.0409474,17.5872658 90.1316041,17.1809895 90.27,16.79 C89.68,17.32 89.52,17.84 89.36,17.79 C89.2,17.74 89.53,16.92 89.2,16.91 C88.87,16.9 88.41,17.79 88.2,17.77 C87.99,17.75 87.68,17.71 87.55,17.68 C87.5706003,17.2996099 87.6516137,16.9249229 87.79,16.57 C87.15,16.57 87.22,17.2 86.79,17.57 C86.7,17.64 85.79,17.57 85.67,17.63 C85.67,17.33 85.94,17.14 86,16.63 C85.44,16.76 85,17.79 84.18,17.72 C83.45,17.99 85.02,16.88 85.43,16.31 C85.22,16.31 83.73,17.39 83.49,17.44 C83.07,17.53 83.06,17.06 82.94,16.8 C88.53,11.97 97.25,14.49 97.69,14.35 C96.7686482,13.9472199 95.8063654,13.6454587 94.82,13.45 C94.7,13.21 95.88,13.09 96.03,12.97 C95.72,12.54 94.27,13.41 93.75,13.21 C93.23,13.01 94.53,12.72 94.23,12.58 C94.13,12.58 93.07,12.82 92.97,12.78 C92.66,12.63 92.22,12.5 92.06,12.42 C91.24,12 92.98,11.93 93.43,11.9 C93.07,11.55 92.75,11.78 92.2,11.75 C91.65,11.72 90.68,11.97 90.2,11.89 C91.42,11.16 92.06,11.48 91.54,10.97 C91.31,10.73 89.77,11.32 89.46,11.44 C89.15,11.56 90.6,10.22 90.33,10.22 C90.06,10.22 88.2,11 87.99,11.04 C88.5233099,10.4785026 89.1713508,10.038517 89.89,9.75 C89.67,9.66 88.29,10.23 87.41,10.36 C87.2,10.36 87.01,10.1 86.89,10.11 C88.26,8.34 95.37,7.87 98.89,10.97 C99.12,10.41 97.66,9.22 96.89,8.87 C96.6631537,8.58608725 96.539716,8.23340835 96.54,7.87 C96.42,7.63 98.29,8.63 98.29,8.63 C98.319382,8.6386113 98.350618,8.6386113 98.38,8.63 C98.3846835,8.6001828 98.3846835,8.5698172 98.38,8.54 C97.99,7.94 96.67,7.38 96.02,6.82 C95.85,6.67 97.27,7.02 96.91,6.82 C96.24,6.44 95.79,6.23 95.81,6.09 C96.5076877,6.02382456 97.2028052,6.23992329 97.74,6.69 C97.37,5.6 95.57,4.97 95.57,4.97 C95.81,4.67 97.24,4.78 97.57,4.97 C96.9932939,4.59636251 96.3919143,4.26226276 95.77,3.97 C95.5454427,3.50606999 95.3807889,3.01546874 95.28,2.51 C95.9532245,2.59206941 96.5885559,2.86633816 97.11,3.3 C96.48,2.51 95.69,1.96 95.93,2.01 C97.4627832,2.17053724 98.8586582,2.96455445 99.78,4.2 C100.08,4.59 99.14,2.72 99.63,3.1 C100.604619,3.98921747 101.299517,5.14274905 101.63,6.42 C101.74,7.11 101.83,7.67 101.89,8.14 C101.89,8.14 101.89,8.14 101.89,8.2 C102.484551,6.68177943 103.981378,5.7120607 105.61,5.79 C105.61,5.79 107.2,5.96 107.35,5.91 C101.674949,0.256026616 92.9463482,-0.967111861 85.9358145,2.90923108 C78.9252808,6.78557403 75.3201353,14.8284259 77.0911834,22.6410443 C78.8622315,30.4536627 85.5832109,36.1556779 93.58,36.63 C96.38,33.08 98.82,28.14 99.2,24.24 C99.2,24.17 98.88,24.72 98.88,24.72 M109.3,12 C109.59,12.68 109.77,13.23 109.54,13.29 C109.1,13.44 108.38,12.38 108,11.94 C108.17855,12.4054865 108.263506,12.9016272 108.25,13.4 L107.64,13.24 C107.64,13.24 106.58,12.38 106.19,12.42 C106.77,13.68 106.42,13.57 106.42,13.57 C106.042641,13.3762394 105.703768,13.1153069 105.42,12.8 C105.578601,13.0652801 105.715705,13.3428337 105.83,13.63 C105.83,13.63 105.63,13.85 105.51,13.73 C105.327438,13.5770636 105.137191,13.4335437 104.94,13.3 L104.77,13.91 C104.77,13.91 104.24,13.49 103.96,13.57 C103.68,13.65 103.87,14.02 103.75,14.1 C103.63,14.18 102.19,14.66 102.65,14.58 L105.72,14.09 C105.98,14.09 106.72,14.04 106.59,14.02 C109.19,13.79 111.38,14.58 112.47,16.15 L112.47,16.15 C112.319542,15.1651895 112.08536,14.1950065 111.77,13.25 C111.58,12.68 111.37,12.92 111.19,13.39 C111.01,13.86 110.42,13.65 110.42,13.65 C110.42,13.65 110.16,13.18 109.32,12.01 M107.39,8.81 C107.39,8.93 105.6,7.81 105.03,8.21 C105.69,8.21 106.91,8.89 106.76,9.13 C106.183359,9.05302376 105.614535,8.92587482 105.06,8.75 C104.645675,8.68830636 104.222436,8.75826312 103.85,8.95 C104.62,9.17 105.44,9.34 105.41,9.36 C105.11,9.52 104.02,9.36 103.34,10.25 L102.08,11.7 L103.3,10.91 C107.63,8.4 110.43,10.34 110.55,10.41 C110.065022,9.5203491 109.462997,8.69971059 108.76,7.97 C108.99,8.45 107.76,8.62 107.76,8.62 C107.408371,8.23647845 107.008349,7.900325 106.57,7.62 C106.21,7.49 107.29,8.37 107.37,8.79" id="Shape" fill="#F99E29"></path>
                <path d="M21.21,67 C20.8211535,67.4533849 20.2660158,67.7309538 19.67,67.77 C19.4214916,67.8043292 19.1708662,67.8210376 18.92,67.8200455 C18.469158,67.8197542 18.0197375,67.7694459 17.58,67.67 C17.3880384,67.6235016 17.200624,67.5599145 17.02,67.48 C16.8245331,67.3998488 16.6397841,67.2957175 16.47,67.17 C16.2774371,67.0227892 16.1116789,66.8434997 15.98,66.64 L16.67,66.36 C16.700614,66.4081121 16.7376187,66.4518449 16.78,66.49 C16.9865876,66.6828936 17.227382,66.8355098 17.49,66.94 C17.9650696,67.1086567 18.4658912,67.1932549 18.97,67.19 C19.4686616,67.2144825 19.9632321,67.0890984 20.39,66.83 C20.6109548,66.6652745 20.7407925,66.4055991 20.74,66.13 C20.7415711,65.8456542 20.5660526,65.5903545 20.3,65.49 C19.7454598,65.3371086 19.1748885,65.2498448 18.6,65.23 C17.6,65.15 17.12,65.1 16.73,64.75 C16.486428,64.5238807 16.3547499,64.202001 16.37,63.87 C16.3636654,63.3710875 16.6434391,62.9125695 17.09,62.69 C17.627691,62.4401264 18.2176773,62.3235012 18.81,62.35 C19.5112125,62.3175495 20.206554,62.4913848 20.81,62.85 C20.8926908,62.9018766 20.9697709,62.9622001 21.04,63.03 C21.1665063,63.1405458 21.2805199,63.2646194 21.38,63.4 L20.7,63.68 C20.6071014,63.5757258 20.5031593,63.4818427 20.39,63.4 C19.9138172,63.0949944 19.3549275,62.9447927 18.79,62.97 C18.4029065,62.9582928 18.0168363,63.0158646 17.65,63.14 C17.3248613,63.2221361 17.0902725,63.5052605 17.07,63.84 C17.06871,63.9530879 17.0999501,64.0641639 17.16,64.16 C17.3697693,64.4144648 17.6915096,64.5491468 18.02,64.52 C18.59,64.6 19.17,64.63 19.74,64.69 C20.2808961,64.6947853 20.7967883,64.9184589 21.17,65.31 C21.3537527,65.5430109 21.4493687,65.8334003 21.44,66.13 C21.4554937,66.4368432 21.3751102,66.7409026 21.21,67 Z" id="Path" fill="#717373"></path>
                <path d="M26.48,67 C26.0708912,67.5005486 25.445069,67.7724832 24.8,67.73 C24.264337,67.755366 23.7337907,67.6157485 23.28,67.33 L23.1,67.17 L23.1,69.11 L22.4,69.11 L22.4,64.11 L23.1,64.11 L23.1,64.49 C23.2117047,64.4010642 23.3323533,64.3239831 23.46,64.26 C23.8379988,64.0943567 24.247369,64.0124827 24.66,64.02 C25.3259591,63.9891154 25.9734735,64.2437559 26.44,64.72 C26.5235397,64.8192779 26.5972203,64.9264496 26.66,65.04 C26.7987138,65.2977925 26.8676577,65.5873571 26.86,65.88 C26.8536631,66.2839011 26.7207539,66.6756333 26.48,67 L26.48,67 Z M25.81,65 C25.6082384,64.7783005 25.3427245,64.6245819 25.05,64.56 C24.8974472,64.5381196 24.7425528,64.5381196 24.59,64.56 C24.2012791,64.5432626 23.8190296,64.6636003 23.51,64.9 C23.2139375,65.1453669 23.0508797,65.5159527 23.07,65.9 C23.0561177,66.1292304 23.1156668,66.3569183 23.24,66.55 C23.5682952,66.9743029 24.0843537,67.2098948 24.62,67.18 C24.831452,67.179231 25.0411892,67.1420196 25.24,67.07 C25.7698521,66.893012 26.1199112,66.3882755 26.1,65.83 C26.1138614,65.5263059 26.0099763,65.2289797 25.81,65 L25.81,65 Z" id="Shape" fill="#717373"></path>
                <path d="M31.62,67.7 C31.01,67.7 30.95,67.36 30.92,67.09 C30.8764366,67.1725832 30.8189229,67.2470127 30.75,67.31 C30.3138677,67.6634285 29.7600357,67.8385108 29.2,67.8 C29.0301888,67.8113311 28.8598112,67.8113311 28.69,67.8 C28.342097,67.7654423 28.0186483,67.6054951 27.78,67.35 C27.6006231,67.1411481 27.5013753,66.8753058 27.5,66.6 C27.4694739,66.1649518 27.7244083,65.7602939 28.13,65.6 C28.70321,65.4462901 29.2979676,65.388842 29.89,65.43 L30.89,65.43 C30.89,65.11 30.89,64.8 30.57,64.62 C30.2910676,64.5065919 29.9907517,64.4554017 29.69,64.47 C29.3019569,64.4390198 28.9139189,64.5299116 28.58,64.73 C28.51,64.73 28.49,64.81 28.41,64.95 L27.71,64.88 C27.7434739,64.7552386 27.7975512,64.6369443 27.87,64.53 C27.9826059,64.3631863 28.1429267,64.2342326 28.33,64.16 C28.7662559,64.0237457 29.2239803,63.9694969 29.68,64 C30.0164426,63.9983135 30.3519686,64.0352213 30.68,64.11 C30.9463722,64.1446339 31.187611,64.2849753 31.3493808,64.4994145 C31.5111507,64.7138536 31.5798481,64.9843578 31.54,65.25 L31.54,66.56 C31.5201265,66.7160364 31.5201265,66.8739636 31.54,67.03 C31.54,67.14 31.67,67.24 31.92,67.24 L32.18,67.24 L32.18,67.73 L31.62,67.7 Z M29.6,66 C29.2283023,65.9677119 28.8539312,66.0119558 28.5,66.13 C28.3205828,66.213718 28.204274,66.3920582 28.2,66.59 C28.2,66.95 28.53,67.3 29.2,67.3 C29.3564601,67.3113782 29.5135399,67.3113782 29.67,67.3 C30.1110349,67.2464224 30.5060948,67.001339 30.75,66.63 C30.8421135,66.4473429 30.8868175,66.2444555 30.88,66.04 L29.6,66 Z" id="Shape" fill="#717373"></path>
                <path d="M40.39,67.67 L38.63,65.58 L36.11,65.58 L36.11,67.67 L35.37,67.67 L35.37,62.46 L38.92,62.46 C39.1958164,62.4445608 39.4723687,62.4715416 39.74,62.54 C40.4152044,62.6908835 40.8811871,63.3093695 40.84,64 C40.8634933,64.5723412 40.5284239,65.0988789 40,65.32 C39.8171059,65.3919162 39.6254002,65.4390018 39.43,65.46 L41.36,67.67 L40.39,67.67 Z M39.94,63.5 C39.72,63.11 39.37,63.08 38.94,63.08 L36.1,63.08 L36.1,65 L38.68,65 C39.1188288,65.0630427 39.5620805,64.9189859 39.88,64.61 C40.0140652,64.451384 40.0820826,64.2473319 40.07,64.04 C40.0785275,63.8513356 40.0334554,63.664113 39.94,63.5 Z" id="Shape" fill="#717373"></path>
                <path d="M42.4,66 C42.4190005,66.3114045 42.5546877,66.6042034 42.78,66.82 C43.1081779,67.1172125 43.5373153,67.278139 43.98,67.27 C44.4115426,67.2826445 44.8298808,67.1203581 45.14,66.82 C45.2246448,66.7179761 45.2983797,66.6073736 45.36,66.49 L46.03,66.67 C45.9801957,66.7841402 45.9163713,66.891634 45.84,66.99 C45.6598071,67.2397347 45.4188749,67.4393643 45.14,67.57 C44.7476139,67.7478134 44.3207445,67.8366023 43.89,67.83 C43.3345286,67.8888174 42.7797705,67.7126609 42.3599876,67.3441637 C41.9402046,66.9756664 41.693652,66.4484098 41.68,65.89 C41.6846258,65.6608679 41.7285993,65.4342355 41.81,65.22 C42.0867796,64.5522794 42.7023048,64.0858566 43.42,64 C43.5698556,63.9906935 43.7201444,63.9906935 43.87,64 C44.5639331,63.9758078 45.2307734,64.2705438 45.68,64.8 C45.9000316,65.0622788 46.0420792,65.3810197 46.09,65.72 C46.0948071,65.8132714 46.0948071,65.9067286 46.09,66 L42.4,66 Z M44.78,64.76 C44.6624128,64.6824561 44.5344896,64.6218609 44.4,64.58 C44.2438454,64.5363834 44.0820862,64.5161635 43.92,64.52 C43.3807692,64.4889059 42.865995,64.7481995 42.57,65.2 C42.5089864,65.2818037 42.4617009,65.3729971 42.43,65.47 L45.31,65.47 C45.2344395,65.1593702 45.0453752,64.8882591 44.78,64.71 L44.78,64.76 Z" id="Shape" fill="#717373"></path>
                <path d="M50.9,67.08 C50.46,67.85 49.05,67.8 49.02,67.8 C48.1423783,67.831491 47.2796013,67.5673756 46.57,67.05 L47.17,66.65 C47.2880712,66.740868 47.4116395,66.8243602 47.54,66.9 C47.9941101,67.1103448 48.4895787,67.2162725 48.99,67.21 C49.3371726,67.2068379 49.6803404,67.1354862 50,67 C50.1646025,66.9323265 50.2768622,66.7774854 50.29,66.6 C50.2700227,66.4470117 50.1522234,66.3251504 50,66.3 C49.3888909,66.142268 48.7610818,66.0583363 48.13,66.05 C47.8033307,66.0349925 47.4862256,65.9350355 47.21,65.76 C46.9877194,65.6019169 46.8599281,65.3425757 46.87,65.07 C46.8749037,64.6889609 47.0959434,64.3438288 47.44,64.18 C47.896501,64.0067411 48.3817929,63.9218999 48.87,63.93 C49.4411781,63.9131108 50.0077658,64.03673 50.52,64.29 C50.6818578,64.3698862 50.8303,64.4744705 50.96,64.6 L50.35,64.94 C49.88924,64.6513726 49.3534964,64.5052607 48.81,64.52 C48.46309,64.487085 48.1143645,64.5603173 47.81,64.73 C47.7081389,64.786358 47.6449193,64.8935874 47.6449193,65.01 C47.6449193,65.1264126 47.7081389,65.233642 47.81,65.29 C48.3594657,65.4480413 48.9282586,65.5288166 49.5,65.53 C49.8658036,65.5204278 50.2277593,65.6066078 50.55,65.78 C50.8188383,65.956171 50.9776513,66.258672 50.97,66.58 C50.986498,66.7498564 50.9625093,66.9212046 50.9,67.08 L50.9,67.08 Z" id="Path" fill="#717373"></path>
                <path d="M56.14,66.81 C55.667483,67.4874643 54.8739946,67.8671238 54.05,67.81 C53.7123188,67.8121329 53.3759119,67.7684 53.05,67.68 C52.2550229,67.4871541 51.6863856,66.7876074 51.6599563,65.97 C51.6575942,65.6169892 51.7546298,65.2704335 51.94,64.97 C52.4255851,64.3278421 53.1956675,63.9652305 54,64 C54.4531856,63.9951048 54.902522,64.0836104 55.32,64.26 C55.451009,64.3235678 55.5750158,64.4006532 55.69,64.49 C55.7997349,64.5797667 55.9002333,64.6802651 55.99,64.79 C56.2385077,65.1057979 56.3693274,65.498257 56.36,65.9 C56.3659019,66.2171787 56.2901427,66.5305464 56.14,66.81 L56.14,66.81 Z M55.52,65.24 C55.1581565,64.7733691 54.5894615,64.5152116 54,64.55 C53.5766228,64.5407097 53.1631276,64.6785414 52.83,64.94 C52.5401997,65.1892417 52.3815441,65.5582082 52.4,65.94 C52.3956409,66.1832688 52.4692281,66.4215511 52.61,66.62 C52.9749445,67.0526164 53.5256737,67.2833273 54.09,67.24 C54.4442228,67.2410631 54.7913043,67.1404095 55.09,66.95 C55.4441952,66.7389569 55.6665507,66.3620832 55.68,65.95 C55.6953547,65.7029267 55.6398457,65.4566056 55.52,65.24 L55.52,65.24 Z" id="Shape" fill="#717373"></path>
                <path d="M59.26,64.63 C59.13,64.63 58.26,64.63 58.07,65.25 C58.0255548,65.4025671 58.0053089,65.5611602 58.01,65.72 L58.01,67.72 L57.31,67.72 L57.31,64.12 L58,64.12 L58,64.52 C58.061155,64.4571514 58.1281201,64.400231 58.2,64.35 C58.5579839,64.120285 58.9746532,63.9987565 59.4,63.9999906 C59.5387361,64.0015597 59.6766347,64.02174 59.81,64.06 L59.81,64.75 C59.6350136,64.678405 59.4489054,64.6377996 59.26,64.63 Z" id="Path" fill="#717373"></path>
                <path d="M61.9,64.55 L61.9,66.47 C61.9,66.47 61.9,66.63 61.9,66.75 C61.9,66.87 62.01,67.1 62.39,67.1 C62.5597603,67.112768 62.7302397,67.112768 62.9,67.1 L62.9,67.72 C62.6702527,67.7352471 62.4397473,67.7352471 62.21,67.72 C61.927023,67.7463415 61.6446144,67.6641213 61.42,67.49 C61.24,67.31 61.21,67.12 61.21,66.67 L61.21,64.55 L60.6,64.55 L60.6,64.07 L61.23,64.07 L61.23,62.82 L61.92,62.82 L61.92,64.07 L62.92,64.07 L62.92,64.55 L61.9,64.55 Z" id="Path" fill="#717373"></path>
                <path d="M68.21,67.08 C67.77,67.85 66.36,67.8 66.33,67.8 C65.4523783,67.831491 64.5896013,67.5673756 63.88,67.05 L64.48,66.65 C64.5980712,66.740868 64.7216395,66.8243602 64.85,66.9 C65.3041101,67.1103448 65.7995787,67.2162725 66.3,67.21 C66.6418233,67.2150637 66.9813974,67.1539404 67.3,67.03 C67.4646025,66.9623265 67.5768622,66.8074854 67.59,66.63 C67.5905113,66.4825301 67.4985326,66.3505605 67.36,66.3 C66.7490402,66.1415044 66.1211384,66.0575603 65.49,66.05 C65.1633307,66.0349925 64.8462256,65.9350355 64.57,65.76 C64.3477194,65.6019169 64.2199281,65.3425757 64.23,65.07 C64.2349037,64.6889609 64.4559434,64.3438288 64.8,64.18 C65.256501,64.0067411 65.7417929,63.9218999 66.23,63.93 C66.8011781,63.9131108 67.3677658,64.03673 67.88,64.29 C68.0418578,64.3698862 68.1903,64.4744705 68.32,64.6 L67.71,64.94 C67.24924,64.6513726 66.7134964,64.5052607 66.17,64.52 C65.8231618,64.488342 65.4748044,64.5614971 65.17,64.73 C65.0681389,64.786358 65.0049193,64.8935874 65.0049193,65.01 C65.0049193,65.1264126 65.0681389,65.233642 65.17,65.29 C65.7194657,65.4480413 66.2882586,65.5288166 66.86,65.53 C67.2089264,65.5289611 67.5526127,65.6148827 67.86,65.78 C68.1288383,65.956171 68.2876513,66.258672 68.28,66.58 C68.296498,66.7498564 68.2725093,66.9212046 68.21,67.08 L68.21,67.08 Z" id="Path" fill="#717373"></path>
                <path d="M75.77,67 C75.3184792,67.5132741 74.6514907,67.7837749 73.97,67.73 C73.5670396,67.7504426 73.1652368,67.6714557 72.8,67.5 C72.6525205,67.432976 72.5173149,67.3417123 72.4,67.23 L72.4,67.64 L71.7,67.64 L71.7,62.46 L72.4,62.46 L72.4,64.46 C72.5220546,64.3374744 72.6685759,64.2420653 72.83,64.18 C73.2009714,64.0308347 73.6013476,63.9692384 74,64 C74.247049,63.9952364 74.4933331,64.028974 74.73,64.1 C75.5958316,64.2571067 76.2190543,65.0202365 76.2,65.9 C76.1764783,66.3028869 76.0259459,66.6879698 75.77,67 L75.77,67 Z M75,64.9 C74.6670159,64.6177674 74.2347452,64.4808817 73.8,64.52 C73.5719442,64.5316874 73.3480903,64.585955 73.14,64.68 C72.6489275,64.8832251 72.3345221,65.3687627 72.35,65.9 C72.3442202,66.0872021 72.3854786,66.2728648 72.47,66.44 C72.7856205,66.9341083 73.3448955,67.2175764 73.93,67.18 C74.2589343,67.1836163 74.5830599,67.1008608 74.87,66.94 C75.2303798,66.7041873 75.4453524,66.3006421 75.44,65.87 C75.441214,65.4980996 75.2806183,65.144059 75,64.9 L75,64.9 Z" id="Shape" fill="#717373"></path>
                <path d="M78.91,68 C78.718101,68.5831781 78.1519631,68.9592259 77.54,68.91 C77.2644732,68.9053966 76.989966,68.8752678 76.72,68.82 L76.72,68.2 C76.9620435,68.2629246 77.2101189,68.2998007 77.46,68.31 C77.9,68.31 78.09,68.14 78.33,67.69 L76.5,64.06 L77.3,64.06 L78.71,67 L80.17,64.09 L81,64.09 L78.91,68 Z" id="Path" fill="#717373"></path>
                <polygon id="Path" fill="#717373" points="88.73 67.67 86.37 64.86 84.76 66.05 84.76 67.67 84 67.67 84 62.46 84.73 62.46 84.73 65.23 88.49 62.46 89.57 62.46 86.94 64.46 89.68 67.71"></polygon>
                <path d="M94,67.7 C93.38,67.7 93.33,67.36 93.3,67.09 C93.2538539,67.1708915 93.1966343,67.2449403 93.13,67.31 C92.6938677,67.6634285 92.1400357,67.8385108 91.58,67.8 C91.4135477,67.8119542 91.2464523,67.8119542 91.08,67.8 C90.7285509,67.7678066 90.4011614,67.6076704 90.16,67.35 C89.9806231,67.1411481 89.8813753,66.8753058 89.88,66.6 C89.8494739,66.1649518 90.1044083,65.7602939 90.51,65.6 C91.08321,65.4462901 91.6779676,65.388842 92.27,65.43 L93.27,65.43 C93.27,65.11 93.27,64.8 92.95,64.62 C92.6710676,64.5065919 92.3707517,64.4554017 92.07,64.47 C91.6819569,64.4390198 91.2939189,64.5299116 90.96,64.73 C90.89,64.73 90.87,64.81 90.79,64.95 L90.09,64.88 C90.1234739,64.7552386 90.1775512,64.6369443 90.25,64.53 C90.3626059,64.3631863 90.5229267,64.2342326 90.71,64.16 C91.1271888,64.0309589 91.5639273,63.9767898 92,64 C92.3364426,63.9983135 92.6719686,64.0352213 93,64.11 C93.2663722,64.1446339 93.507611,64.2849753 93.6693808,64.4994145 C93.8311507,64.7138536 93.8998481,64.9843578 93.86,65.25 L93.86,66.56 C93.8401265,66.7160364 93.8401265,66.8739636 93.86,67.03 C93.86,67.14 93.99,67.24 94.24,67.24 L94.5,67.24 L94.5,67.73 L94,67.7 Z M92,66 C91.6283023,65.9677119 91.2539312,66.0119558 90.9,66.13 C90.7205828,66.213718 90.604274,66.3920582 90.6,66.59 C90.6,66.95 90.93,67.3 91.6,67.3 C91.79,67.3 92.02,67.3 92.07,67.3 C92.5110349,67.2464224 92.9060948,67.001339 93.15,66.63 C93.2421135,66.4473429 93.2868175,66.2444555 93.28,66.04 L92,66 Z" id="Shape" fill="#717373"></path>
                <path d="M97.16,64.63 C97.04,64.63 96.16,64.63 95.97,65.25 C95.9255548,65.4025671 95.9053089,65.5611602 95.91,65.72 L95.91,67.72 L95.21,67.72 L95.21,64.12 L95.91,64.12 L95.91,64.52 C95.9734474,64.4596514 96.0402182,64.4028963 96.11,64.35 C96.4664808,64.1251182 96.8785323,64.0039266 97.3,64 C97.4420699,64.0009045 97.5833596,64.0210888 97.72,64.06 L97.72,64.75 C97.5411896,64.6795195 97.3519898,64.6389767 97.16,64.63 Z" id="Path" fill="#717373"></path>
                <path d="M98.28,63.46 L98.28,62.75 L99,62.75 L99,63.46 L98.28,63.46 Z M98.28,67.67 L98.28,64.07 L98.98,64.07 L98.98,67.67 L98.28,67.67 Z" id="Shape" fill="#717373"></path>
                <path d="M104,67.08 C103.56,67.85 102.15,67.8 102.12,67.8 C101.239797,67.8276116 100.375084,67.5639794 99.66,67.05 L100.27,66.65 C100.384451,66.7457785 100.508434,66.8295512 100.64,66.9 C101.090402,67.1108384 101.58274,67.2168279 102.08,67.21 C102.421782,67.214563 102.761261,67.1534567 103.08,67.03 C103.241731,66.958725 103.352547,66.8058765 103.37,66.63 C103.366406,66.4814446 103.27655,66.348614 103.14,66.29 C102.523829,66.1423999 101.893491,66.0619312 101.26,66.05 C100.933572,66.0336403 100.616803,65.9337893 100.34,65.76 C100.120496,65.599569 99.9934813,65.3418047 100,65.07 C100.006746,64.6866807 100.232047,64.3409597 100.58,64.18 C101.033302,64.0077537 101.515127,63.9229253 102,63.93 C102.574275,63.9143022 103.143819,64.0378178 103.66,64.29 C103.821858,64.3698862 103.9703,64.4744705 104.1,64.6 L103.49,64.94 C103.029,64.6519215 102.493425,64.5058556 101.95,64.52 C101.603234,64.489568 101.255231,64.5626486 100.95,64.73 C100.855414,64.791547 100.798837,64.8971588 100.8,65.01 C100.800981,65.1274608 100.866237,65.2349424 100.97,65.29 C101.519466,65.4480413 102.088259,65.5288166 102.66,65.53 C103.009081,65.5276792 103.353079,65.6136788 103.66,65.78 C103.928838,65.956171 104.087651,66.258672 104.08,66.58 C104.09667,66.7507699 104.06912,66.9229566 104,67.08 Z" id="Path" fill="#717373"></path>
                <path d="M111.79,67.67 L111.79,65.84 C111.811046,65.6020785 111.776822,65.3625118 111.69,65.14 C111.449714,64.7491933 111.006177,64.5313154 110.55,64.58 C110.028209,64.5368649 109.522457,64.7726287 109.22,65.2 C109.137378,65.3850664 109.102975,65.5880442 109.12,65.79 L109.12,67.67 L108.42,67.67 L108.42,65.82 C108.424656,65.6381087 108.40447,65.4564327 108.36,65.28 C108.181848,64.8158595 107.714524,64.5289058 107.22,64.58 C106.832903,64.5749197 106.454376,64.6940857 106.14,64.92 C106.027889,65.0046815 105.932873,65.1098773 105.86,65.23 C105.776936,65.4219942 105.742586,65.631534 105.76,65.84 L105.76,67.67 L105.05,67.67 L105.05,64.07 L105.76,64.07 L105.76,64.56 C105.842341,64.4747719 105.932765,64.3977435 106.03,64.33 C106.429799,64.0950216 106.886299,63.9739799 107.35,63.98 C107.781128,63.9718612 108.205211,64.0900735 108.57,64.32 C108.679219,64.4176339 108.779608,64.524716 108.87,64.64 C108.959554,64.5457135 109.056532,64.4587676 109.16,64.38 C109.594172,64.1001891 110.10384,63.9605538 110.62,63.98 C111.342175,63.9117993 112.036465,64.2765958 112.39,64.91 C112.480034,65.1733961 112.514093,65.452686 112.49,65.73 L112.49,67.67 L111.79,67.67 Z" id="Path" fill="#717373"></path>
                <path d="M117.5,67.7 C116.89,67.7 116.83,67.36 116.8,67.09 C116.753854,67.1708915 116.696634,67.2449403 116.63,67.31 C116.193868,67.6634285 115.640036,67.8385108 115.08,67.8 C114.913548,67.8119542 114.746452,67.8119542 114.58,67.8 C114.228551,67.7678066 113.901161,67.6076704 113.66,67.35 C113.480623,67.1411481 113.381375,66.8753058 113.38,66.6 C113.349474,66.1649518 113.604408,65.7602939 114.01,65.6 C114.58321,65.4462901 115.177968,65.388842 115.77,65.43 L116.77,65.43 C116.77,65.11 116.77,64.8 116.45,64.62 C116.171068,64.5065919 115.870752,64.4554017 115.57,64.47 C115.181957,64.4390198 114.793919,64.5299116 114.46,64.73 C114.39,64.73 114.37,64.81 114.29,64.95 L113.59,64.88 C113.623474,64.7552386 113.677551,64.6369443 113.75,64.53 C113.862606,64.3631863 114.022927,64.2342326 114.21,64.16 C114.63486,64.0172395 115.082124,63.9528607 115.53,63.97 C115.866443,63.9683135 116.201969,64.0052213 116.53,64.08 C116.796372,64.1146339 117.037611,64.2549753 117.199381,64.4694145 C117.361151,64.6838536 117.429848,64.9543578 117.39,65.22 L117.39,66.53 C117.370126,66.6860364 117.370126,66.8439636 117.39,67 C117.39,67.11 117.52,67.21 117.77,67.21 L118.03,67.21 L118.03,67.7 L117.5,67.7 Z M115.5,65.96 C115.128302,65.9277119 114.753931,65.9719558 114.4,66.09 C114.220583,66.173718 114.104274,66.3520582 114.1,66.55 C114.1,66.91 114.43,67.26 115.1,67.26 C115.29,67.26 115.52,67.26 115.57,67.26 C116.011035,67.2064224 116.406095,66.961339 116.65,66.59 C116.742113,66.4073429 116.786817,66.2044555 116.78,66 L115.5,65.96 Z" id="Shape" fill="#717373"></path>
            </g>
        </g>
    </g>
</svg>