<?xml version="1.0" encoding="UTF-8"?>
<svg width="120px" height="76px" viewBox="0 0 120 76" version="1.1" xmlns="http://www.w3.org/2000/svg" xmlns:xlink="http://www.w3.org/1999/xlink">
    <title>brands / Generations COL</title>
    <g id="Symbols" stroke="none" stroke-width="1" fill="none" fill-rule="evenodd">
        <g id="brands-/-Generations-COL" fill-rule="nonzero">
            <g id="Shape">
                <path d="M98,56.36 L97.21,56.36 L94.3,58.63 L94.3,56.36 L93.78,56.36 L93.78,60.62 L94.3,60.62 L94.3,59.23 L95.51,58.28 L97.61,60.62 L98.31,60.62 L95.9,58 L98,56.36 Z M101.89,58.45 C101.89,57.66 101.09,57.45 100.4,57.45 C99.7931828,57.3714755 99.1906542,57.6231647 98.82,58.11 L99.18,58.35 C99.4872874,57.9845672 99.9547789,57.7938306 100.43,57.84 C100.92,57.84 101.43,58 101.43,58.41 L101.43,58.53 C100.23,58.67 98.64,58.71 98.64,59.77 C98.64,60.56 99.38,60.7100005 99.89,60.7100005 C100.435595,60.7103278 100.96868,60.5465697 101.42,60.24 C101.426996,60.3650933 101.447106,60.4891064 101.48,60.61 L101.95,60.61 C101.939127,60.453522 101.939127,60.296478 101.95,60.14 L101.89,58.45 Z M101.42,59.85 C100.945719,60.1321147 100.410838,60.2966935 99.86,60.33 C99.62,60.33 99.08,60.26 99.08,59.78 C99.08,59.3 100.02,59.06 101.42,58.93 L101.42,59.85 Z M103.27,58.19 L103.27,57.55 L102.8,57.55 L102.8,60.62 L103.27,60.62 L103.27,58.79 C103.495472,58.3228844 103.937103,57.9972754 104.45,57.92 C104.576287,57.9061271 104.703713,57.9061271 104.83,57.92 L104.83,57.44 L104.55,57.44 C104.026017,57.4820631 103.548697,57.7574401 103.25,58.19 L103.27,58.19 Z M105.58,56.9 L106.13,56.9 L106.13,56.36 L105.58,56.36 L105.58,56.9 Z M105.58,60.62 L106.06,60.62 L106.06,57.55 L105.58,57.55 L105.58,60.62 Z M107.37,58.36 C107.37,58.04 107.69,57.86 108.25,57.86 C108.733172,57.8310267 109.199978,58.0401558 109.5,58.42 L109.82,58.12 C109.453144,57.6398148 108.860089,57.388907 108.26,57.46 C107.61,57.46 106.89,57.69 106.89,58.39 C106.89,59.66 109.45,58.92 109.45,59.79 C109.45,60.15 108.99,60.31 108.45,60.31 C107.911737,60.3274519 107.396702,60.0903137 107.06,59.67 L106.71,59.99 C107.133171,60.4832897 107.760901,60.752844 108.41,60.72 C109.2,60.72 109.89,60.46 109.89,59.72 C109.94,58.44 107.39,59.15 107.39,58.36 L107.37,58.36 Z M114.6,57.46 C114.129281,57.4680321 113.681907,57.6664643 113.36,58.01 C113.174279,57.6357795 112.775496,57.4164487 112.36,57.46 C111.902191,57.4727419 111.466233,57.6585601 111.14,57.98 L111.14,57.55 L110.68,57.55 L110.68,60.62 L111.16,60.62 L111.16,58.4 C111.4579,58.0821234 111.865326,57.8891324 112.3,57.86 C112.491266,57.8409169 112.680339,57.9131015 112.810224,58.0547943 C112.940109,58.1964871 112.995612,58.3911117 112.96,58.58 L112.96,60.58 L113.44,60.58 L113.44,58.4 C113.731147,58.084214 114.13161,57.8911337 114.56,57.86 C114.753467,57.8384124 114.94584,57.9089435 115.079503,58.0504693 C115.213166,58.1919951 115.272599,58.3880814 115.24,58.58 L115.24,60.58 L115.71,60.58 L115.71,58.4 C115.75,57.52 114.91,57.46 114.62,57.46 L114.6,57.46 Z M119.6,60.15 L119.6,58.45 C119.6,57.66 118.8,57.45 118.1,57.45 C117.496543,57.3752064 116.898762,57.626503 116.53,58.11 L116.88,58.35 C117.191459,57.9843617 117.661903,57.7939438 118.14,57.84 C118.63,57.84 119.14,58 119.14,58.41 L119.14,58.53 C117.95,58.67 116.36,58.71 116.36,59.77 C116.36,60.56 117.1,60.71 117.61,60.71 C118.155138,60.7073008 118.68736,60.5438078 119.14,60.24 C119.142021,60.3655842 119.162231,60.4902127 119.2,60.61 L119.67,60.61 C119.638177,60.4586951 119.621429,60.3046086 119.62,60.15 L119.6,60.15 Z M119.12,59.85 C118.647019,60.1350348 118.111404,60.2998396 117.56,60.33 C117.33,60.33 116.79,60.26 116.79,59.78 C116.79,59.3 117.73,59.06 119.12,58.93 L119.12,59.85 Z" fill="#6F7271"></path>
                <path d="M85.22,57.46 C84.7139927,57.4537707 84.2244355,57.639588 83.85,57.98 L83.85,56.36 L83.37,56.36 L83.37,60.05 C83.37,60.13 83.37,60.53 83.37,60.62 L83.74,60.62 L83.86,60.14 C84.2407379,60.5279281 84.7667566,60.7383356 85.31,60.72 C85.8923429,60.709282 86.424732,60.388702 86.7066214,59.8790192 C86.9885108,59.3693365 86.9770749,58.747984 86.6766214,58.2490192 C86.3761679,57.7500545 85.8323429,57.449282 85.25,57.46 L85.22,57.46 Z M85.22,60.31 C84.7098483,60.2714182 84.2338789,60.0388015 83.89,59.66 L83.89,58.47 C84.2268942,58.081728 84.7159455,57.8591002 85.23,57.86 C85.5810368,57.8239989 85.9301258,57.9443309 86.184418,58.1889908 C86.4387101,58.4336506 86.5724258,58.7778353 86.55,59.13 C86.5413343,59.4743108 86.3875365,59.7989173 86.1265721,60.0236896 C85.8656077,60.2484619 85.5217931,60.3524557 85.18,60.31 L85.22,60.31 Z M90.44,57.55 L89.14,60 L87.83,57.52 L87.31,57.52 L88.89,60.52 C88.61,61.11 88.37,61.29 88.01,61.29 C87.8219996,61.2916646 87.6353825,61.2577342 87.46,61.19 L87.46,61.63 C87.6510584,61.6893402 87.8499389,61.7196779 88.05,61.72 C88.5138405,61.7291481 88.9369597,61.4562956 89.12,61.03 L90.91,57.57 L90.44,57.55 Z" fill="#6F7271"></path>
                <path d="M49.09,61.3 C50.4,62.37 53.09,61.93 54.09,61.66 C55.76,61.11 58.01,59.71 58.58,57.72 C58.8525288,56.9005672 58.6864858,55.9986518 58.14,55.33 C56.9816735,54.2434678 55.3464613,53.8280559 53.81,54.23 C53.0153855,54.3794393 52.2426763,54.6280501 51.51,54.97 C49.7894873,55.6631804 48.5364147,57.1796617 48.18,59 C48.0250941,59.876953 48.3770172,60.766429 49.09,61.3 Z M52.21,56.07 C53.0598266,55.3076371 54.0939006,54.7802593 55.21,54.54 C55.6713805,54.4379448 56.1534712,54.5687446 56.5,54.89 C56.8605437,55.3477074 56.9727345,55.9535374 56.8,56.51 C56.1949888,58.6556641 54.6561031,60.4149153 52.61,61.3 C51.9944746,61.6214256 51.2806759,61.6999434 50.61,61.52 C50.2071937,61.207347 49.9800356,60.7195157 50,60.21 C50.0429906,58.5588138 50.8620042,57.024553 52.21,56.07 L52.21,56.07 Z M58.73,71.7 C58.62,71.77 58.42,72.02 58.16,72.24 C55,75 39.69,77.16 34.54,69 C32.6033094,65.8055246 31.0142509,62.4128513 29.8,58.88 C28.5,55.49 27.88,52.44 24.18,50.7 C26.1843594,50.7700377 28.1818895,50.4297429 30.05,49.7 C31.82,48.98 33.91,47.52 34.43,45.62 C34.7002599,44.5865336 34.4948962,43.4863706 33.87,42.62 C32.57,40.94 29.74,40.9997333 28.28,40.9997333 L20.48,40.9997333 C20.3839156,41.0213505 20.3155522,41.106572 20.3155522,41.205 C20.3155522,41.303428 20.3839156,41.3886495 20.48,41.41 C22.65,41.41 23.21,41.47 23.37,41.91 C23.53,42.35 23.09,42.91 22.28,44.11 L11.69,58.73 C10.2,61 9.36,61.44 6,61.44 C5.75,61.44 5.82,61.84 6,61.84 L15.63,61.84 C15.7404569,61.84 15.83,61.7504569 15.83,61.64 C15.83,61.5295431 15.7404569,61.44 15.63,61.44 C13.48,61.44 12.92,61.38 12.74,60.94 C12.56,60.5 12.95,60.07 13.86,58.73 L19.36,50.67 L22.03,50.67 C24.89,50.67 25.79,53.25 26.94,56.55 C27.78,58.97 29.69,65.39 33.11,69.55 C39.84,77.62 54.81,75.82 58.58,72.85 C58.58,72.85 59.18,72.39 59.23,72.18 C59.36,71.69 58.93,71.48 58.73,71.7 Z M19.67,50.24 L22.84,45.48 C24.84,42.37 25.51,41.48 28.44,41.48 C29.5410413,41.4177935 30.6285735,41.7472413 31.51,42.41 C32.317256,43.1618143 32.5546858,44.3449389 32.1,45.35 C30.86,48.12 27.41,50.28 23.83,50.28 L19.67,50.24 Z M93.2,42.24 C91.4819331,41.661749 89.6377066,41.5683267 87.87,41.97 C83.6174554,43.081466 79.6475282,45.0783564 76.22,47.83 C73.8509983,49.9455071 71.6971691,52.2902667 69.79,54.83 L67.65,54.83 C67.5505887,54.83 67.47,54.9105887 67.47,55.01 C67.47,55.1094113 67.5505887,55.19 67.65,55.19 L69.57,55.19 C69.2,55.76 69.17,55.85 68.83,56.41 L68.83,56.41 C67.83,57.97 67.17,59.47 67.74,60.84 C68.045703,61.5522259 68.7353849,62.0237034 69.51,62.05 C70.2634376,62.1367224 71.0267228,62.0477295 71.74,61.79 C71.98,61.7 72,61.56 71.98,61.46 C71.96,61.36 71.8,61.35 71.75,61.34 C71.2502212,61.5472648 70.7102453,61.6395392 70.17,61.61 C69.7218264,61.5940438 69.3272822,61.309972 69.17,60.89 C68.64,59.48 70.31,56.54 71.44,55.19 L74.52,55.19 C74.6194113,55.19 74.7,55.1094113 74.7,55.01 C74.7,54.9105887 74.6194113,54.83 74.52,54.83 L71.65,54.83 L71.74,54.68 C72.26,53.95 74.74,50.97 76.74,48.84 C79.34,46.01 85.74,42.71 87.97,42.35 C89.6775207,41.9984826 91.4448832,42.067118 93.12,42.55 C93.2741251,42.6407264 93.4153845,42.751716 93.54,42.88 C93.74,43.03 94.01,43.11 94.11,42.95 C94.21,42.79 93.47,42.38 93.2,42.25 L93.2,42.24 Z M39.63,58.68 C39.63,58.54 39.56,58.51 39.42,58.48 C39.11,58.48 39.14,58.93 39.14,59.17 C39.1345697,60.4836658 39.9252968,61.6697565 41.14,62.17 C42.3023912,62.5780933 43.5959105,62.2780903 44.46,61.4 C44.8510253,61.0395634 45.1494469,60.5902159 45.33,60.09 C45.4151331,59.6743141 45.4151331,59.2456859 45.33,58.83 C45.33,58.57 45.06,57.6 45.02,57.36 C44.741646,56.5200814 44.9113419,55.5961817 45.47,54.91 C45.7550294,54.6826183 46.1056132,54.5529022 46.47,54.54 C46.963545,54.5464961 47.4372558,54.7352681 47.8,55.07 C47.8660973,55.1392261 47.9232134,55.2165008 47.97,55.3 C48.13,55.56 48.32,55.89 48.54,55.86 C48.76,55.83 48.71,55.66 48.62,55.47 C48.5459828,55.3265486 48.4553611,55.1922942 48.35,55.07 C47.3994806,54.0706599 45.8752723,53.8822276 44.71,54.62 C43.8736767,55.1356075 43.3346531,56.0203497 43.26,57 C43.2796127,57.4932955 43.3809911,57.979912 43.56,58.44 C43.7358062,59.0021961 43.8036661,59.5925772 43.76,60.18 C43.7639568,60.5346234 43.6630685,60.8825139 43.47,61.18 C42.7680795,61.9998942 41.5422313,62.1149558 40.7,61.44 C39.832219,60.809998 39.4136414,59.7303025 39.63,58.68 L39.63,58.68 Z M81.44,55.1 C80.4894806,54.1006599 78.9652723,53.9122276 77.8,54.65 C76.9246035,55.1302702 76.3385837,56.0074336 76.23,57 C76.2579891,57.4931775 76.3625743,57.9789929 76.54,58.44 C76.705916,59.0042472 76.7735685,59.5928235 76.74,60.18 C76.740393,60.5355643 76.6360515,60.883369 76.44,61.18 C75.7390242,61.9936362 74.5205895,62.1084163 73.68,61.44 C72.8176341,60.8190915 72.3958198,59.7528387 72.6,58.71 C72.6,58.57 72.54,58.54 72.4,58.51 C72.09,58.51 72.11,58.96 72.12,59.2 C72.1172968,60.5128447 72.9071037,61.697555 74.12,62.2 C75.285456,62.6097978 76.5827448,62.3098241 77.45,61.43 C77.8379951,61.0689751 78.1330305,60.6195608 78.31,60.12 C78.4065186,59.7069845 78.4234876,59.2793649 78.36,58.86 C78.36,58.6 78.09,57.63 78.05,57.39 C77.7617595,56.5507934 77.9323536,55.6220029 78.5,54.94 C78.7850294,54.7126183 79.1356132,54.5829022 79.5,54.57 C79.993545,54.5764961 80.4672558,54.7652681 80.83,55.1 C80.8929536,55.1718142 80.9498168,55.2487468 81,55.33 C81.15,55.59 81.35,55.92 81.57,55.89 C81.79,55.86 81.74,55.69 81.65,55.5 C81.5881463,55.3625461 81.5180177,55.2289678 81.44,55.1 Z M33.12,57.24 C32.3131334,58.1233571 31.9654041,59.3330114 32.18,60.51 C32.4219283,61.2560153 33.0363969,61.8211747 33.8,62 C35.4316417,62.2356083 37.0916256,61.8385001 38.44,60.89 C38.5228459,60.8529922 38.5761917,60.770736 38.5761917,60.68 C38.5761917,60.589264 38.5228459,60.5070078 38.44,60.47 C38.3741774,60.4549976 38.3058226,60.4549976 38.24,60.47 C37.6823706,60.7884814 37.1005804,61.0626584 36.5,61.29 C35.8042314,61.5407734 35.0262811,61.3696243 34.5,60.85 C34.1266958,60.407127 33.9823596,59.8149783 34.11,59.25 C34.1371561,59.0846761 34.1738845,58.9210677 34.22,58.76 L35.35,58.48 C37.22,57.99 39.22,57.55 40.35,56.06 C40.6570399,55.7391612 40.7363873,55.2630767 40.55,54.86 C40.295549,54.4534606 39.8672346,54.1876103 39.39,54.14 C37.65,53.94 35,55 33.12,57.24 Z M37.93,54.63 C38.2637072,54.5149082 38.630465,54.6702409 38.78,54.99 C38.9179379,55.3090632 38.9179379,55.6709368 38.78,55.99 C38.4,56.79 37.93,57.42 35.21,58.08 C35.21,58.08 34.66,58.24 34.35,58.3 C35,56.74 36.47,55 37.93,54.63 Z M69.79,53.63 C69.9529901,53.4935784 70.1035784,53.3429901 70.24,53.18 C70.2239795,53.0040614 70.1180465,52.8489453 69.96,52.77 C69.767126,52.6343102 69.5357508,52.5641965 69.3,52.57 C68.2060699,52.6969137 67.1681702,53.1224526 66.3,53.8 C65.598815,54.3355104 64.9309107,54.9132476 64.3,55.53 C64.3768844,55.2558917 64.3254022,54.9617081 64.16,54.73 C63.69,53.98 62.01,54.21 61.22,54.34 L59.68,54.56 C59.43,54.62 59.52,54.98 59.74,54.93 L61.28,54.73 C62.2,54.59 62.59,54.56 62.76,54.73 C62.93,54.9 62.93,55.12 62.54,55.73 L60.13,59.55 C59.6,60.13 59.03,61.41 57.13,61.46 C56.94,61.46 56.94,61.81 57.13,61.81 L63.07,61.81 C63.32,61.81 63.27,61.46 63.07,61.46 C61.56,61.46 61.29,60.62 61.91,59.77 L63.09,57.86 C64.0134224,56.3406973 65.2386729,55.0269564 66.69,54 C67.357714,53.3769813 68.1974547,52.9693064 69.1,52.83 C69.5,52.89 69.77,53.58 69.79,53.61 L69.79,53.63 Z" fill="#6F7271"></path>
                <path d="M118.67,31.06 C118.594913,30.9194879 118.507928,30.7856654 118.41,30.66 C117.460179,29.6610872 115.938464,29.4687827 114.77,30.2 C113.890058,30.6900477 113.304173,31.5782053 113.2,32.58 C113.219613,33.0732955 113.320991,33.559912 113.5,34.02 C113.674649,34.582528 113.745801,35.172073 113.71,35.76 C113.710393,36.1155643 113.606052,36.463369 113.41,36.76 C112.709024,37.5736362 111.490589,37.6884163 110.65,37.02 C109.787634,36.3990915 109.36582,35.3328387 109.57,34.29 C109.57,34.15 109.5,34.12 109.37,34.09 C109.06,34.09 109.08,34.54 109.08,34.78 C109.07457,36.0936658 109.865297,37.2797565 111.08,37.78 C112.245456,38.1897978 113.542745,37.8898241 114.41,37.01 C114.793634,36.6453128 115.087936,36.1970153 115.27,35.7 C115.354857,35.2842862 115.354857,34.8557138 115.27,34.44 C115.27,34.18 115.01,33.21 114.97,32.97 C114.681759,32.1307934 114.852354,31.2020029 115.42,30.52 C115.703948,30.2907086 116.055191,30.1607484 116.42,30.15 C116.917005,30.1540272 117.394705,30.3429682 117.76,30.68 C117.819327,30.7523184 117.872828,30.829226 117.92,30.91 C118.08,31.17 118.27,31.5 118.5,31.47 C118.73,31.44 118.77,31.24 118.67,31.06 Z M59.06,33.65 C61.06,30.53 67.25,25.83 71.06,28.14 C71.47,28.39 71.6,28.69 71.93,28.84 C72,28.84 72.46,28.79 72.02,28.42 C69.96,26.68 65.17,26.42 60.24,31.3 C60.3227923,31.0275837 60.2747899,30.7321842 60.11,30.5 C59.63,29.75 57.95,29.98 57.17,30.11 L55.63,30.34 C55.5656922,30.350718 55.5119873,30.3949296 55.4891154,30.4559808 C55.4662435,30.5170319 55.4776795,30.5856476 55.5191154,30.6359808 C55.5605514,30.686314 55.6256922,30.710718 55.69,30.7 L57.22,30.5 C58.15,30.36 58.54,30.34 58.71,30.5 C58.88,30.66 58.88,30.89 58.48,31.5 L56.08,35.32 C55.55,35.9 54.98,37.18 53.08,37.23 C52.88,37.23 52.88,37.59 53.08,37.59 L59.02,37.59 C59.27,37.59 59.21,37.23 59.02,37.23 C57.5,37.23 57.24,36.39 57.86,35.54 L59.06,33.65 Z M72.63,29.81 L71.83,29.81 C71.33,29.81 71.25,29.89 70.97,30.28 L70.28,31.17 C70.09,30.34 69.78,30.01 69.12,29.87 C67.52,29.53 64.53,30.81 62.79,32.63 C61.7789977,33.5541135 61.3111399,34.9312757 61.55,36.28 C61.6499259,36.9429855 62.1198638,37.4905991 62.76,37.69 C64.34,38.08 66.41,36.75 67.76,35.2 C67.6177288,35.8453108 67.7025,36.5199484 68,37.11 C68.3744521,37.6385018 69.0248841,37.8971073 69.66,37.77 C70.1292638,37.7133957 70.5856451,37.5781716 71.01,37.37 C71.24,37.16 71.1,36.88 70.84,37 C70.5911228,37.1277621 70.3250135,37.2187108 70.05,37.27 C69.7543527,37.3398833 69.4482177,37.2051839 69.3,36.94 C68.89,36.31 69.99,34.76 71.01,33.26 L73.01,30.36 C73.16,30.06 73.07,29.81 72.63,29.81 Z M69.76,31.44 C69.48,32.91 66.41,36.31 64.7,37.03 C64.3206514,37.2670404 63.8393486,37.2670404 63.46,37.03 C63.2051237,36.7644056 63.1167699,36.3802589 63.23,36.03 C63.59,34.03 66.41,31.28 68.23,30.5 C68.64,30.34 69.14,30.17 69.5,30.5 C69.7706573,30.7307339 69.8736182,31.1029772 69.76,31.44 L69.76,31.44 Z M26.49,30.38 C26.6170255,30.38 26.72,30.2770255 26.72,30.15 C26.72,30.0229745 26.6170255,29.92 26.49,29.92 L13.77,29.92 C13.6429745,29.92 13.54,30.0229745 13.54,30.15 C13.54,30.2770255 13.6429745,30.38 13.77,30.38 L16.6,30.38 C18.2,30.38 20.27,30.28 20.85,31.24 C21.43,32.2 20.77,33 20,34.1 C17.25,38.35 13,40.53 9.43,40.53 C8,40.53 5.43,39.92 4.5,38.32 C3.04,35.64 4.32,31.14 6.18,28.13 C9.31,23 15.7,18 20.35,18.2 C22.0304868,18.0887258 23.6308742,18.9314419 24.49,20.38 C25.23,21.68 25.35,23.85 23.31,27.03 C23.1,27.39 23.53,27.67 23.81,27.28 L29.81,19.16 C29.99,18.91 29.6,18.59 29.35,18.91 C28.8895031,19.6318214 28.1763744,20.155971 27.35,20.38 C25.89,20.67 25.17,19.31 23.35,18.38 C19.67,16.56 14.85,18.46 11.63,20.38 C6.63,23.27 2.49,28.38 2.31,33.24 C2.24,34.92 2.31,38.24 4.78,39.89 C7.38,41.68 11.78,41 14.03,40 L14.53,39.78 C15.71,39.28 15.75,39 16.35,39.21 C16.6848056,39.3154488 16.8870856,39.6554514 16.82,40 C16.57,41.18 14.64,43 13.64,43.78 C10.78,46.03 6.64,46.89 3.99,45.93 C3.09296958,45.6576752 2.31421679,45.0903485 1.78,44.32 C1.6,44.07 1.6,43.75 1.38,43.39 C1.35757373,43.2841667 1.28469812,43.1960466 1.18495509,43.1541545 C1.08521207,43.1122625 0.971270158,43.1219192 0.88,43.18 C0.668080494,43.2829058 0.562164364,43.5243946 0.63,43.75 C0.7,44.21 1.1,44.46 1.17,44.61 C2.49,46.32 5.49,46.89 7.45,46.79 C12.88,46.43 15.53,43.57 19.45,37.67 L21.38,34.78 C24.61,30.52 23.23,30.42 26.89,30.38 L26.49,30.38 Z M96.7,33.47 C96.9725288,32.6505672 96.8064858,31.7486518 96.26,31.08 C95.10154,29.9936117 93.4629618,29.5849132 91.93,30 C91.134221,30.1448235 90.3609308,30.3936213 89.63,30.74 C87.9163447,31.4431863 86.6771614,32.9686248 86.34,34.79 C86.1954198,35.6601248 86.5460212,36.5385545 87.25,37.07 C88.56,38.14 91.25,37.7 92.25,37.42 C93.88,36.86 96.13,35.47 96.7,33.47 L96.7,33.47 Z M95,32.26 C94.393764,34.4073508 92.8557753,36.1692471 90.81,37.06 C90.1927908,37.375851 89.4811078,37.4541361 88.81,37.28 C88.3818525,36.9770312 88.1281226,36.4844967 88.1299897,35.96 C88.1830798,34.3042606 89.0130642,32.7702714 90.37,31.82 C91.2198266,31.0576371 92.2539006,30.5302593 93.37,30.29 C93.8312444,30.193122 94.3109719,30.3232807 94.66,30.64 C95.0344093,31.0904748 95.1617062,31.6970071 95,32.26 L95,32.26 Z M45.34,32 C45.24,31.21 44.91,30.23 44.06,30 C42.56,29.56 40.93,30.62 39.35,31.93 C39.4545192,31.4615216 39.3642914,30.9706824 39.1,30.57 C38.53,29.86 37,30.05 36.24,30.19 L34.74,30.41 C34.6675211,30.3925509 34.5917864,30.4215862 34.549548,30.4830156 C34.5073097,30.5444451 34.5073097,30.6255549 34.549548,30.6869844 C34.5917864,30.7484138 34.6675211,30.7774491 34.74,30.76 L36.24,30.57 C37.14,30.43 37.52,30.41 37.69,30.57 C37.86,30.73 37.85,30.95 37.47,31.57 L35.12,35.33 C34.03,37.1 33.79,37.21 30.9,37.21 C30.71,37.21 30.71,37.57 30.9,37.57 L37.74,37.57 C37.99,37.57 37.93,37.21 37.74,37.21 C36.95,37.21 36.62,37.21 36.46,36.94 C36.3,36.67 36.46,36.42 36.65,35.94 C37.9,33.07 41.59,30.21 42.95,30.24 C43.3500762,30.2546116 43.6924051,30.531735 43.79,30.92 C44.1,31.74 43.27,33.56 42.49,34.92 C42.34,35.18 42.1,35.62 41.88,36.05 C41.73,36.31 41.58,36.57 41.42,36.82 C41.26,37.07 40.87,37.11 40.21,37.14 C40.02,37.14 40.02,37.48 40.21,37.48 L44.44,37.48 C44.7,37.48 44.64,37.14 44.44,37.14 C43.64,37.14 43.72,36.39 44.02,35.94 C44.09,35.83 44.22,35.64 44.35,35.42 L44.35,35.42 C45.0386489,34.415868 45.3857688,33.2167266 45.34,32 Z M108.75,32 C108.64,31.2 108.31,30.22 107.46,30 C105.95,29.56 104.31,30.63 102.72,31.94 C102.823854,31.4682874 102.73377,30.9746279 102.47,30.57 C101.9,29.86 100.36,30.05 99.6,30.19 L98.09,30.41 C97.84,30.46 97.93,30.82 98.09,30.77 L99.6,30.57 C100.51,30.44 100.89,30.41 101.05,30.57 C101.21,30.73 101.22,30.96 100.83,31.57 L98.48,35.35 C97.38,37.13 97.13,37.24 94.23,37.24 C94.04,37.24 94.04,37.6 94.23,37.6 L101.11,37.6 C101.35,37.6 101.3,37.24 101.11,37.24 C100.31,37.24 99.99,37.24 99.82,36.97 C99.65,36.7 99.82,36.45 100.01,35.97 C101.27,33.09 105.01,30.21 106.34,30.24 C106.744244,30.2580428 107.089241,30.5380989 107.19,30.93 C107.5,31.75 106.66,33.58 105.88,34.93 C105.73,35.2 105.49,35.64 105.27,36.08 C105.12,36.33 104.97,36.59 104.8,36.85 C104.63,37.11 104.25,37.14 103.59,37.17 C103.4,37.17 103.4,37.51 103.59,37.51 L107.84,37.51 C108.1,37.51 108.04,37.17 107.84,37.17 C107.03,37.17 107.11,36.42 107.42,35.97 C107.49,35.85 107.62,35.66 107.75,35.44 L107.75,35.44 C108.436104,34.4267022 108.785959,33.2231997 108.75,32 L108.75,32 Z M52.31,36.18 C52.2441774,36.1649976 52.1758226,36.1649976 52.11,36.18 C51.5533646,36.5003885 50.9714185,36.774639 50.37,37 C49.6742314,37.2507734 48.8962811,37.0796243 48.37,36.56 C48.0200045,36.1212915 47.8843067,35.5491603 48,35 C48.0259636,34.8344468 48.0627084,34.6707653 48.11,34.51 L49.24,34.23 C51.11,33.74 53.12,33.3 54.24,31.81 C54.5461848,31.4846982 54.6252215,31.006526 54.44,30.6 C54.1901967,30.1903741 53.7584263,29.9261009 53.28,29.89 C51.63,29.67 48.94,30.74 47.1,32.97 C46.2931334,33.8533571 45.9454041,35.0630114 46.16,36.24 C46.4106458,36.9744253 47.0235569,37.526802 47.78,37.7 C49.4114995,37.9325306 51.0703596,37.5356912 52.42,36.59 C52.4934469,36.5332836 52.5256162,36.4379861 52.50157,36.3483593 C52.4775237,36.2587324 52.401973,36.1923354 52.31,36.18 L52.31,36.18 Z M51.83,30.37 C52.1611138,30.2534757 52.5269393,30.4041098 52.68,30.72 C52.8341265,31.0530322 52.8341265,31.4369678 52.68,31.77 C52.3,32.57 51.83,33.2 49.11,33.86 C49.11,33.86 48.56,34.02 48.26,34.08 C48.86,32.48 50.37,30.72 51.83,30.37 Z M31,36.18 C30.9341774,36.1649976 30.8658226,36.1649976 30.8,36.18 C30.2423706,36.4984814 29.6605804,36.7726584 29.06,37 C28.3639171,37.2457973 27.5886548,37.0752395 27.06,36.56 C26.6930355,36.1139717 26.5527743,35.5233984 26.68,34.96 C26.7059636,34.7944468 26.7427084,34.6307653 26.79,34.47 L27.92,34.19 C29.79,33.7 31.79,33.26 32.92,31.77 C33.230747,31.4463879 33.306607,30.9632793 33.11,30.56 C32.8634162,30.1519044 32.4353226,29.8876031 31.96,29.85 C30.31,29.63 27.62,30.7 25.78,32.93 C24.9731334,33.8133571 24.6254041,35.0230114 24.84,36.2 C25.0906458,36.9344253 25.7035569,37.486802 26.46,37.66 C28.0522985,37.8792464 29.669416,37.5016816 31,36.6 C31.0828459,36.5629922 31.1361917,36.480736 31.1361917,36.39 C31.1361917,36.299264 31.0828459,36.2170078 31,36.18 L31,36.18 Z M30.52,30.37 C30.8511138,30.2534757 31.2169393,30.4041098 31.37,30.72 C31.5201606,31.0538941 31.5201606,31.4361059 31.37,31.77 C30.99,32.57 30.52,33.2 27.8,33.86 C27.8,33.86 27.25,34.02 26.94,34.08 C27.56,32.48 29.07,30.72 30.53,30.37 L30.52,30.37 Z M87.32,25.55 C86.9126077,25.6838875 86.6275723,26.0520582 86.6,26.48 C86.6202666,26.7121716 86.7407688,26.9239634 86.93,27.06 C87.1445365,27.1792745 87.4054635,27.1792745 87.62,27.06 C87.9311415,26.9025987 88.1471468,26.6046604 88.2,26.26 C88.2487684,26.0294407 88.172823,25.7902129 88,25.63 C87.8003524,25.503115 87.5539098,25.473689 87.33,25.55 L87.32,25.55 Z M82.66,30.1 L82.66,30.1 C82.45,30.18 82.46,30.54 82.75,30.48 L82.75,30.48 C83.66,30.34 84.04,30.31 84.2,30.48 C84.36,30.65 84.37,30.86 83.98,31.48 L81.62,35.27 C80.62,36.96 80.54,37.05 79.3,37.16 C79.11,37.16 79.11,37.52 79.3,37.52 L83.85,37.52 C84.09,37.52 84.04,37.16 83.85,37.16 C82.36,37.16 83.13,35.9 83.41,35.49 L85,32.87 C85.35,32.27 86.07,31.25 85.54,30.49 C85.01,29.73 83.43,30 82.67,30.1 L82.66,30.1 Z M77.84,37.1 C77.3398452,37.30596 76.8001667,37.3981836 76.26,37.37 C75.8144992,37.3463453 75.4237355,37.0649954 75.26,36.65 C74.74,35.24 76.75,31.82 77.88,30.47 L81,30.47 C81.0994113,30.47 81.18,30.3894113 81.18,30.29 C81.18,30.1905887 81.0994113,30.11 81,30.11 L78.09,30.11 L78.17,29.95 C79.536716,28.0676184 81.1589697,26.3847827 82.99,24.95 C84.99,23.44 88.55,21.28 90.77,20.76 C92.4516277,20.2913215 94.2211704,20.2330227 95.93,20.59 C96.0864505,20.6786972 96.2338229,20.7825277 96.37,20.9 C96.58,21.03 96.86,21.09 96.94,20.9 C97.02,20.71 96.28,20.38 96.01,20.27 C94.2542726,19.8104875 92.4053149,19.8485746 90.67,20.38 C87.8374149,21.244751 85.1433664,22.5109539 82.67,24.14 C80.1646336,25.7239266 77.97435,27.7582457 76.21,30.14 L74.09,30.14 C73.9905887,30.14 73.91,30.2205887 73.91,30.32 C73.91,30.4194113 73.9905887,30.5 74.09,30.5 L76,30.5 C75.63,31.07 75.26,31.64 74.91,32.2 L74.91,32.2 C73.91,33.76 73.25,35.26 73.82,36.62 C74.1211891,37.3329539 74.8066937,37.8081332 75.58,37.84 C76.3367261,37.927193 77.1033651,37.8382081 77.82,37.58 C78.06,37.49 78.08,37.35 78.06,37.25 C78.04,37.15 77.9,37.07 77.85,37.06 L77.84,37.1 Z" fill="#6F7271"></path>
                <path d="M68.81,6.6 C68.81,6.68 67.55,5.86 67.15,6.18 C67.61,6.18 68.47,6.65 68.37,6.82 C67.96393,6.76420272 67.5627487,6.67728011 67.17,6.56 C66.876789,6.51298774 66.576215,6.55842334 66.31,6.69 C66.86,6.85 67.43,6.97 67.41,6.98 C67.2,7.09 66.41,6.98 65.96,7.61 L65.07,8.61 L65.93,8.05 C68.93,6.29 70.93,7.65 71.03,7.7 C70.683159,7.0826028 70.2598168,6.51142685 69.77,6 C69.93,6.34 69.08,6.46 69.08,6.46 C68.8317857,6.19382236 68.5493156,5.96179335 68.24,5.77 C68,5.68 68.75,6.3 68.81,6.6 Z M70.17,8.85 C70.37,9.32 70.5,9.71 70.33,9.75 C70.16,9.79 69.52,9.11 69.25,8.8 C69.3727987,9.11865787 69.4305998,9.45866439 69.42,9.8 L69,9.72 C69,9.72 68.25,9.11 68,9.14 C68.41,10.02 68.16,9.95 68.16,9.95 C67.8820372,9.81781949 67.6337151,9.63072748 67.43,9.4 C67.540675,9.58946597 67.6375913,9.78664046 67.72,9.99 C67.72,9.99 67.57,10.15 67.49,10.06 C67.3642792,9.95023312 67.230578,9.8499572 67.09,9.76 L66.97,10.19 C66.97,10.19 66.6,9.89 66.4,9.95 C66.2,10.01 66.34,10.26 66.26,10.32 C66.18,10.38 65.16,10.71 65.48,10.66 C66.14,10.54 67.18,10.39 67.64,10.32 C67.82,10.32 68.34,10.32 68.25,10.27 C69.794538,9.98669276 71.3721032,10.5558386 72.38,11.76 L72.38,11.76 C72.272994,11.0807815 72.1090836,10.4117595 71.89,9.76 C71.75,9.36 71.61,9.52 71.48,9.85 C71.35,10.18 70.94,10.03 70.94,10.03 C70.94,10.03 70.75,9.66 70.17,8.85 Z M62.75,17.85 C62.698354,17.9297887 62.6379818,18.003577 62.57,18.07 C62.5,18.14 62.2,17.42 62.08,17.47 C62.1972061,17.6615613 62.2465205,17.8869985 62.22,18.11 C61.93,18.31 61.62,18.72 61.58,18.71 C61.32,18.65 61.42,18.24 61.23,17.5 C60.87,17.77 61.06,18.5 61.03,19.14 C60.24,19.75 60.5,18.79 60.34,18.52 C59.88,18.68 60.18,19.16 60.01,19.67 C59.84,20.18 59.65,19.82 59.58,19.45 C59.1,19.8 59.44,19.83 59.25,20.53 C59,20.04 58.93,20.01 58.85,21.02 C58.52,21.61 58.5,20.91 58.52,20.63 C58.35,20.85 58.52,21.32 58.32,21.83 C58.32,21.96 58.15,21.59 58.05,21.69 C58.0105627,21.8842023 57.9904646,22.0818344 57.99,22.28 C57.66,22.87 57.46,22.55 57.48,22.28 C57.35,22.37 57.48,23.11 57.42,23.2 C57.2880715,23.4137126 57.1061866,23.5921658 56.89,23.72 C56.8174559,20.9823267 57.9552558,18.3518504 60,16.53 C60,16.46 60.62,15.94 60.63,15.88 C60.64,15.82 60.09,16.04 60.04,16.08 C59.8686444,16.2840552 59.7241349,16.5092211 59.61,16.75 C59.25,16.98 59.37,16.43 59.49,16.02 L59.19,16.5 C59.144457,16.7706371 59.0309055,17.0252678 58.86,17.24 L58.47,17.34 C58.01,17.46 58.47,16.19 58.28,16.15 C58.09,16.11 58,17.25 57.6,17.53 C57.47,17.62 57.31,16.82 57.16,16.93 C57.01,17.04 56.55,17.84 56.41,17.93 C56.27,18.02 56.17,17.49 56.01,17.62 C55.7723346,17.8248596 55.5667171,18.0641849 55.4,18.33 C55.4,18.13 55.24,17.93 55.06,17.97 C54.72,18.39 54.06,18.73 54.13,18.65 C55.1282323,16.397418 56.9918348,14.641955 59.3,13.78 C60.0594701,13.596022 60.8316161,13.4690023 61.61,13.4 C61.61,13.4 61.29,13.34 61.36,13.27 C61.63,12.86 60.36,13.43 60.1,13.4 C59.84,13.37 60.33,12.97 60.21,12.95 C60.09,12.93 59.71,13.4 59.59,13.48 C59.47,13.56 59.3,13.48 59.2,13.4 C59.1,13.32 59.3,12.87 59.35,12.76 C58.97,12.9 58.81,13.5 58.59,13.47 C58.37,13.44 58.51,12.94 58.59,12.7 C58.09,12.45 58.24,13.04 58.02,13.4 L57.34,13.24 L57.34,12.43 L56.62,13.1 C56.655448,12.8102171 56.7225142,12.5251858 56.82,12.25 C56.4,12.62 56.29,12.99 56.17,12.95 C56.05,12.91 56.3,12.33 56.07,12.33 C55.84,12.33 55.51,12.94 55.36,12.93 L54.9,12.87 C54.9121612,12.6032259 54.9661526,12.3400179 55.06,12.09 C54.62,12.09 54.66,12.53 54.34,12.77 C54.28,12.82 53.6,12.77 53.55,12.77 C53.55,12.56 53.74,12.43 53.79,12.06 C53.39,12.15 53.08,12.87 52.5,12.82 C51.99,13.01 53.1,12.23 53.38,11.82 C53.24,11.82 52.19,12.58 52.02,12.62 C51.85,12.66 51.71,12.35 51.63,12.16 C55.56,8.78 61.7,10.54 62,10.45 C61.3576419,10.1670671 60.6872802,9.95255132 60,9.81 C59.92,9.65 60.75,9.56 60.86,9.48 C60.64,9.17 59.62,9.78 59.26,9.65 C58.9,9.52 59.8,9.3 59.59,9.2 C59.38,9.1 58.77,9.37 58.71,9.34 C58.49,9.24 58.18,9.15 58.07,9.09 C57.49,8.79 58.71,8.75 59.07,8.72 C58.82,8.48 58.6,8.64 58.2,8.62 C57.8,8.6 57.14,8.77 56.81,8.72 C57.67,8.21 58.11,8.43 57.75,8.07 C57.58,7.9 56.51,8.32 56.29,8.4 C56.07,8.48 57.09,7.54 56.89,7.54 C56.69,7.54 55.4,8.09 55.25,8.12 C55.6288209,7.72713433 56.085129,7.41725349 56.59,7.21 C56.43,7.15 55.46,7.55 54.84,7.64 C54.7,7.64 54.56,7.46 54.47,7.47 C55.47,6.22 60.47,5.89 62.95,8.07 C63.11,7.68 62.08,6.84 61.51,6.59 C61.27,6.37 61.29,5.96 61.26,5.91 C61.23,5.86 62.5,6.45 62.5,6.45 C62.5,6.45 62.5,6.45 62.56,6.45 C62.5556639,6.43023502 62.5556639,6.40976498 62.56,6.39 C62.28,5.97 61.35,5.57 60.89,5.18 C60.77,5.08 61.77,5.32 61.52,5.18 C61.05,4.92 60.73,4.77 60.75,4.68 C61.2103261,4.66683047 61.6580184,4.83158126 62,5.14 C61.74,4.37 60.48,3.93 60.48,3.93 C60.65,3.72 61.65,3.8 61.85,3.93 C61.4445693,3.68324054 61.0237023,3.46278641 60.59,3.27 C60.4341028,2.95172042 60.316611,2.61602973 60.24,2.27 C60.7141352,2.33153607 61.1612753,2.52564338 61.53,2.83 C61.09,2.27 60.53,1.89 60.7,1.92 C61.7682256,2.03418226 62.7435026,2.57961496 63.4,3.43 C63.61,3.7 62.95,2.43 63.29,2.66 C63.9670847,3.28975344 64.4465319,4.10272908 64.67,5 C64.75,5.48 64.81,5.88 64.85,6.21 L64.85,6.21 C65.2687855,5.14042416 66.3225996,4.45665169 67.47,4.51 C67.47,4.51 68.58,4.63 68.69,4.6 C65.0504394,1.03881329 59.629395,0.00925323172 54.9376631,1.98816809 C50.2459312,3.96708294 47.1997576,8.56801145 47.2098952,13.66 C47.1830368,20.3089723 52.3619914,25.8173769 59,26.2 C61,23.71 62.68,20.2 62.94,17.5 C62.869093,17.6089318 62.8056156,17.722523 62.75,17.84 L62.75,17.85 Z M72.44,13.27 C72.29,13.01 72.19,12.74 72.08,12.55 C71.97,12.99 72.22,13.2 72.22,13.72 C71.95,13.66 71.82,13.29 71.48,12.79 C71.34,12.79 71.37,13.46 71.35,13.66 C71.02,13.39 70.98,13.66 70.54,12.49 C70.45,12.42 70.27,12.25 70.27,12.25 C70.27,12.25 70.47,13.04 70.55,13.25 C70.28,13.44 69.35,12.97 69.35,12.97 C69.3422566,12.6415317 69.2918339,12.3154646 69.2,12 C68.99,12.17 69.05,12.77 69.05,12.78 L68.64,12.68 C68.6453421,12.6962386 68.6453421,12.7137614 68.64,12.73 C68.64,12.73 68.64,12.67 68.64,12.66 C68.5788082,12.3328705 68.441813,12.0246312 68.24,11.76 C68.2574441,11.9729767 68.2574441,12.1870233 68.24,12.4 C68.24,12.4 67.85,12.1 67.67,12.13 C67.61,11.9 67.49,11.89 67.32,11.79 C67.32,12.1 67.19,11.96 67.37,12.09 L67.45,12.14 C69.08149,12.9929641 70.3416914,14.4169204 70.99,16.14 C71.3032982,16.9315259 71.4496912,17.779243 71.42,18.63 C71.42,18.63 71.42,18.75 71.42,18.76 C72.1440019,17.1465979 72.5188588,15.3984015 72.52,13.63 C72.53,13.51 72.45,13.44 72.44,13.26 L72.44,13.27 Z M69.93,20.15 C69.66,19.89 69.78,19.31 69.93,18.95 C69.7985744,19.1090512 69.7000054,19.2925935 69.64,19.49 C69.44,19.7 69.39,19.49 69.29,19.35 C69.09,18.89 69.48,18.77 69.44,18.24 C69.2,18.36 69.24,18.56 69.08,18.76 C68.92,18.96 69.08,17.89 69.16,17.64 C68.9347367,17.845703 68.7924699,18.12668 68.76,18.43 C68.39,18.25 68.68,17.43 68.53,17.17 C68.53,17.32 68.29,17.97 68.18,17.78 C68.0434538,17.3945404 67.9724707,16.9889228 67.97,16.58 C67.74,16.7 67.88,17.05 67.73,17.25 C67.58,17.45 67.52,16.9 67.52,16.9 C67.4433761,16.5947349 67.4433761,16.2752651 67.52,15.97 C67.17,16.16 67.25,16.69 67.25,16.69 L66.93,16.14 C66.93,16.14 66.99,14.92 66.84,15.34 C66.7633362,15.5243241 66.7193462,15.7205874 66.71,15.92 L66.71,15.84 C66.58,15.98 66.45,15.75 66.45,15.75 C66.45,15.75 66.14,15.45 66.01,15.53 C66.18,15.84 68.61,18.42 68.77,21.85 C68.7209887,21.7713204 68.6411459,21.7168821 68.55,21.7 C68.41,21.7 68.24,21.65 68.1,21.6 C68.0230622,21.5750065 67.954076,21.5301655 67.9,21.47 C67.7989803,21.2300963 67.771147,20.9656798 67.82,20.71 C67.65,20.71 67.42,21.2 67.28,21.03 C67.2190577,20.6564394 67.1889562,20.2784976 67.19,19.9 C67.1405088,20.0038994 67.0836992,20.1041518 67.02,20.2 C67.02,20.31 66.94,20.43 66.89,20.54 C66.8238235,20.4074732 66.7670176,20.2704708 66.72,20.13 C66.7774789,19.8775895 66.80102,19.6186377 66.79,19.36 C66.79,19.36 66.51,19.76 66.49,19.82 C66.4856639,19.839765 66.4856639,19.860235 66.49,19.88 C66.2945143,19.6696485 66.1447027,19.4210974 66.05,19.15 L66.16,18.3 C66.16,18.3 65.88,18.87 65.78,18.74 C65.68,18.61 65.71,18.57 65.7,18.26 C65.7,18.11 65.7,17.7 65.7,17.69 C65.7,17.68 65.52,18.42 65.52,18.42 C65.52,18.42 65.22,17.31 64.98,17.21 C64.98,17.41 64.93,17.61 64.91,17.82 C64.5877236,20.6106456 63.9468809,23.3551972 63,26 C66.034467,25.2390125 68.6785195,23.3789109 70.42,20.78 L70.42,20.7 C70.17,20.28 70.61,19.8 70.67,19.26 C70.4404149,19.567283 70.19334,19.8611018 69.93,20.14 L69.93,20.15 Z" fill="#FF9E18"></path>
            </g>
        </g>
    </g>
</svg>