<?xml version="1.0" encoding="UTF-8"?>
<svg width="146px" height="62px" viewBox="0 0 146 62" version="1.1" xmlns="http://www.w3.org/2000/svg" xmlns:xlink="http://www.w3.org/1999/xlink">
    <title>brands / Hidden Beach COL</title>
    <g id="Symbols" stroke="none" stroke-width="1" fill="none" fill-rule="evenodd">
        <g id="brands-/-Hidden-Beach-COL" fill-rule="nonzero">
            <g>
                <path d="M88.54,0.78 L88.54,28.78 L60.63,28.78 L60.63,0.78 L88.54,0.78 M88.86,0.47 L60.32,0.47 L60.32,29.06 L88.86,29.06 L88.86,0.47 Z" id="Shape" fill="#000000"></path>
                <path d="M87.69,1.64 L87.69,27.89 L61.49,27.89 L61.49,1.64 L87.69,1.64 Z M67.33,15.77 L66.9,15.77 L66.9,20.48 L67.33,20.48 L67.33,15.77 Z M75.21,15.66 L74.77,15.72 L74.77,19.72 L78.59,19.72 C79.5265507,19.8053679 80.4466223,19.4328693 81.06,18.72 C80.4641301,19.1000373 79.7661713,19.2884862 79.06,19.26 L75.21,19.26 L75.21,15.66 Z M80.9,14.64 C80.6933277,14.7772199 80.4759613,14.8976075 80.25,15 C81.6,15.41 82.69,16.19 82.69,17.78 C82.7052629,18.4267959 82.4968677,19.059046 82.1,19.57 C82.7634707,19.0237571 83.1334276,18.1987533 83.1,17.34 C83.0911589,16.0352364 82.1760866,14.9121932 80.9,14.64 Z M75.21,10.64 L74.77,10.64 L74.77,14.58 L78.13,14.58 C79.0038605,14.6589975 79.861613,14.3084378 80.43,13.64 C79.8724388,13.9939168 79.2197907,14.1684216 78.56,14.14 L75.21,14.14 L75.21,10.64 Z M67.33,9.05 L66.04,9.05 L66.04,9.48 L66.9,9.48 L66.9,14.56 L73.48,14.56 L73.48,14.13 L67.33,14.13 L67.33,9.05 Z M78.78,9.05 L73.92,9.05 L73.92,9.48 L78.34,9.48 C80.59,9.48 82.06,10.59 82.06,12.34 C82.0793106,12.9688084 81.8776197,13.5844964 81.49,14.08 C82.1545574,13.5564661 82.5266938,12.7452088 82.49,11.9 C82.49,10.16 81.03,9.05 78.78,9.05 Z" id="Combined-Shape" fill="#000000"></path>
                <polygon id="Path" fill="#000000" points="6.75 50.2 6.75 45.76 0.75 45.76 0.75 50.2 0 50.2 0 40.73 0.7 40.73 0.7 45.11 6.75 45.11 6.75 40.73 7.45 40.73 7.45 50.2"></polygon>
                <polygon id="Path" fill="#000000" points="13.32 50.2 13.32 40.73 14 40.73 14 50.2"></polygon>
                <path d="M23.31,50.2 L20.17,50.2 L20.17,40.73 L23.31,40.73 C24.6070966,40.6558332 25.8775945,41.118467 26.8232942,42.0093161 C27.7689939,42.9001653 28.3066252,44.1407892 28.3100778,45.44 L28.3100778,45.44 C28.3174836,46.7469672 27.7849775,47.9990249 26.8383574,48.9002073 C25.8917372,49.8013897 24.6150198,50.2717128 23.31,50.2 L23.31,50.2 Z M27.61,45.47 C27.6386567,44.3395037 27.1874498,43.2497024 26.3680533,42.470323 C25.5486568,41.6909435 24.437647,41.2948224 23.31,41.38 L20.87,41.38 L20.87,49.55 L23.31,49.55 C24.4323292,49.6345923 25.5383646,49.2424331 26.3567326,48.4697415 C27.1751007,47.6970498 27.6300661,46.6153337 27.61,45.49 L27.61,45.47 Z" id="Shape" fill="#000000"></path>
                <path d="M37.11,50.2 L34,50.2 L34,40.73 L37.14,40.73 C38.4378531,40.6528728 39.7100468,41.1145108 40.6564217,42.005996 C41.6027967,42.8974812 42.1395351,44.1398572 42.14,45.44 L42.14,45.44 C42.1509781,46.7534268 41.6153197,48.0122767 40.6613024,48.9150843 C39.7072852,49.8178919 38.4208252,50.2833528 37.11,50.2 Z M41.4,45.47 C41.4283991,44.341377 40.9785322,43.2533095 40.1614026,42.4742745 C39.344273,41.6952395 38.2359832,41.2977917 37.11,41.38 L34.67,41.38 L34.67,49.55 L37.11,49.55 C38.2306659,49.6316385 39.333992,49.2381578 40.1500981,48.4658056 C40.9662042,47.6934535 41.4198242,46.6134607 41.4,45.49 L41.4,45.47 Z" id="Shape" fill="#000000"></path>
                <polygon id="Path" fill="#000000" points="47.76 50.2 47.76 40.73 54.48 40.73 54.48 41.38 48.48 41.38 48.48 45.1 53.9 45.1 53.9 45.75 48.46 45.75 48.46 49.55 54.55 49.55 54.55 50.2"></polygon>
                <polygon id="Path" fill="#000000" points="68.19 50.2 61.53 41.79 61.53 50.2 60.86 50.2 60.86 40.73 61.52 40.73 68 49 68 40.73 68.67 40.73 68.67 50.2"></polygon>
                <path d="M87.78,50.2 L83.67,50.2 L83.67,40.73 L87.57,40.73 C89.41,40.73 90.64,41.64 90.64,43.06 L90.64,43.06 C90.6564168,44.0963768 89.9890834,45.0200639 89,45.33 C90.13,45.63 91.13,46.33 91.13,47.59 L91.13,47.59 C91.16,49.2 89.81,50.2 87.78,50.2 Z M89.92,43.13 C89.92,42.13 89.07,41.38 87.56,41.38 L84.37,41.38 L84.37,45.1 L87.49,45.1 C88.91,45.1 89.92,44.41 89.92,43.1 L89.92,43.13 Z M90.45,47.59 C90.45,46.43 89.45,45.75 87.57,45.75 L84.37,45.75 L84.37,49.55 L87.8,49.55 C89.42,49.55 90.45,48.81 90.45,47.62 L90.45,47.59 Z" id="Shape" fill="#000000"></path>
                <polygon id="Path" fill="#000000" points="96.93 50.2 96.93 40.73 103.65 40.73 103.65 41.38 97.65 41.38 97.65 45.1 103 45.1 103 45.75 97.59 45.75 97.59 49.55 103.68 49.55 103.68 50.2"></polygon>
                <path d="M117.92,50.2 L116.72,47.55 L111.14,47.55 L109.94,50.2 L109.21,50.2 L113.61,40.67 L114.29,40.67 L118.69,50.2 L117.92,50.2 Z M113.92,41.44 L111.42,46.91 L116.42,46.91 L113.92,41.44 Z" id="Shape" fill="#000000"></path>
                <path d="M127.94,50.36 C126.663461,50.3608353 125.441495,49.8423906 124.55502,48.9238516 C123.668545,48.0053125 123.193827,46.7657037 123.24,45.49 L123.24,45.49 C123.202308,44.2104017 123.681618,42.9695576 124.56973,42.0475766 C125.457842,41.1255956 126.679887,40.6002026 127.96,40.59 C129.3442,40.565351 130.676664,41.1157165 131.64,42.11 L131.14,42.62 C130.332419,41.7372936 129.196271,41.2271128 128,41.21 C126.898055,41.2081767 125.844167,41.6610279 125.087045,42.4616852 C124.329922,43.2623424 123.936637,44.3398764 124,45.44 L124,45.44 C123.951269,46.5391672 124.348532,47.6114257 125.101663,48.4135093 C125.854793,49.2155929 126.899944,49.6795062 128,49.7 C129.249572,49.7013667 130.438522,49.1615981 131.26,48.22 L131.73,48.68 C130.769276,49.7620267 129.386912,50.3747897 127.94,50.36 Z" id="Path" fill="#000000"></path>
                <polygon id="Path" fill="#000000" points="144.42 50.2 144.42 45.76 138.42 45.76 138.42 50.2 137.72 50.2 137.72 40.73 138.42 40.73 138.42 45.11 144.42 45.11 144.42 40.73 145.12 40.73 145.12 50.2"></polygon>
                <path d="M0.57,60.78 L2.07,57.13 C2.11706421,57.0294943 2.14423046,56.9208293 2.15,56.81 C2.14742819,56.7291133 2.11117455,56.6529806 2.05,56.6 L2.72,56.6 L4.36,60.6 C4.41,60.7 4.44,60.78 4.49,60.86 C4.55985125,60.9619921 4.64800788,61.0501487 4.75,61.12 L3.75,61.12 C3.82776748,61.0686707 3.87613376,60.9830996 3.88,60.89 C3.8724547,60.7966294 3.84877029,60.7052752 3.81,60.62 L3.29,59.34 L1.59,59.34 L1.05,60.69 C1.03823394,60.7628614 1.03823394,60.8371386 1.05,60.91 C1.05,60.99 1.05,61.04 1.17,61.12 L0.28,61.12 C0.416194331,61.0474299 0.519821263,60.9259363 0.57,60.78 L0.57,60.78 Z M3.15,59 L2.44,57.2 L1.74,59 L3.15,59 Z" id="Shape" fill="#B6872D"></path>
                <path d="M7.29,56.6 C7.11104092,56.7078121 7.01593718,56.9138701 7.05,57.12 L7.05,59.3 C7.01242304,59.6471568 7.08594994,59.9972849 7.26,60.3 C7.51530649,60.6545189 7.93379745,60.8543389 8.37,60.83 C8.71680479,60.8669617 9.06201804,60.7472776 9.31151898,60.503579 C9.56101993,60.2598804 9.68879246,59.9175784 9.66,59.57 L9.66,57.12 C9.66,56.84 9.66,56.72 9.43,56.6 L10.28,56.6 C10.1,56.72 10.05,56.84 10.05,57.12 L10.05,59.34 C10.0691448,59.6449574 10.0283775,59.9507122 9.93,60.24 C9.67086057,60.885792 9.02404271,61.2900532 8.33,61.24 C7.81232301,61.2694021 7.30668195,61.0766037 6.94,60.71 C6.61449704,60.3331004 6.47179762,59.831823 6.55,59.34 L6.55,57.12 C6.58406282,56.9138701 6.48895908,56.7078121 6.31,56.6 L7.29,56.6 Z" id="Path" fill="#B6872D"></path>
                <path d="M15.85,60.6 L15.85,57.16 C15.8800248,56.9432722 15.7876476,56.7277253 15.61,56.6 L16.3,56.6 L19,59.92 L19,57.12 C19.030667,56.9167299 18.9410247,56.7140603 18.77,56.6 L19.62,56.6 C19.4410409,56.7078121 19.3459372,56.9138701 19.38,57.12 L19.38,61.19 L16.28,57.3 L16.28,60.6 C16.28,60.88 16.34,61 16.51,61.11 L15.66,61.11 C15.79,61 15.85,60.88 15.85,60.6 Z" id="Path" fill="#B6872D"></path>
                <path d="M21.67,60.78 L23.17,57.13 C23.2191815,57.029683 23.2496792,56.9212466 23.26,56.81 C23.257668,56.7267853 23.21708,56.6492991 23.15,56.6 L23.83,56.6 L25.47,60.6 C25.52,60.7 25.55,60.78 25.6,60.86 C25.6635235,60.9637469 25.748823,61.0524584 25.85,61.12 L24.85,61.12 C24.9252457,61.0676057 24.9700712,60.9816901 24.97,60.89 C24.967477,60.7958515 24.9435379,60.703515 24.9,60.62 L24.39,59.34 L22.7,59.34 L22.16,60.69 C22.1321867,60.7603467 22.1153241,60.8345421 22.11,60.91 C22.11,60.99 22.11,61.04 22.23,61.12 L21.39,61.12 C21.5212013,61.0440471 21.6206147,60.9233308 21.67,60.78 L21.67,60.78 Z M24.25,59 L23.55,57.24 L22.85,59 L24.25,59 Z" id="Shape" fill="#B6872D"></path>
                <path d="M28.94,60.6 L28.94,57 L28.09,57 C27.8511065,56.9610006 27.611754,57.0669435 27.48,57.27 L27.57,56.63 L30.83,56.63 L30.92,57.27 C30.7832401,57.06731 30.5415511,56.9620584 30.3,57 L29.46,57 L29.46,60.6 C29.46,60.88 29.46,61 29.69,61.11 L28.69,61.11 C28.88,61 28.94,60.88 28.94,60.6 Z" id="Path" fill="#B6872D"></path>
                <path d="M33.88,56.6 C33.7089753,56.7140603 33.619333,56.9167299 33.65,57.12 L33.65,59.3 C33.6152957,59.6458271 33.6849549,59.9941228 33.85,60.3 C34.1065306,60.6530508 34.5241696,60.8524639 34.96,60.83 C35.3068048,60.8669617 35.652018,60.7472776 35.901519,60.503579 C36.1510199,60.2598804 36.2787925,59.9175784 36.25,59.57 L36.25,57.12 C36.2821469,56.9116566 36.1827956,56.7050057 36,56.6 L36.86,56.6 C36.6810409,56.7078121 36.5859372,56.9138701 36.62,57.12 L36.62,59.34 C36.644217,59.6451137 36.6033135,59.9518904 36.5,60.24 C36.244564,60.8842203 35.6012934,61.2887929 34.91,61.24 C34.3917192,61.2733469 33.8845061,61.0799491 33.52,60.71 C33.1909215,60.334796 33.0445071,59.833327 33.12,59.34 L33.12,57.12 C33.150667,56.9167299 33.0610247,56.7140603 32.89,56.6 L33.88,56.6 Z" id="Path" fill="#B6872D"></path>
                <path d="M39,60.6 L39,57.12 C39.0340628,56.9138701 38.9389591,56.7078121 38.76,56.6 L40.11,56.6 C40.4095207,56.5844275 40.7096607,56.6147788 41,56.69 C41.4253709,56.8329939 41.7033915,57.2418476 41.68,57.69 C41.68,58.28 41.32,58.63 40.58,58.77 C40.6654072,58.8147396 40.745853,58.8683701 40.82,58.93 C40.8817321,58.9776814 40.9386682,59.0312683 40.99,59.09 C41.0764944,59.1916377 41.1566462,59.2985068 41.23,59.41 L42.04,60.56 C42.0583291,60.5996212 42.0818708,60.6366153 42.11,60.67 C42.1780216,60.7730547 42.2624744,60.8642638 42.36,60.94 C42.4660394,61.0212058 42.5841351,61.0853149 42.71,61.13 L41.8,61.13 L40.65,59.46 C40.5271316,59.2585274 40.3636632,59.0848422 40.17,58.95 C39.9727874,58.848333 39.7512492,58.8033331 39.53,58.82 L39.53,60.62 C39.53,60.9 39.59,61.02 39.77,61.13 L38.77,61.13 C39,61 39,60.88 39,60.6 Z M40,58.47 C40.1695371,58.4877421 40.3404629,58.4877421 40.51,58.47 C40.8734574,58.4097458 41.1350543,58.0881103 41.12,57.72 C41.1279626,57.5182199 41.0387157,57.3248517 40.88,57.2 C40.7,57.05 40.45,57.01 39.88,57.01 L39.5,57.01 L39.5,58.49 C39.6669207,58.4937751 39.8339141,58.4870953 40,58.47 Z" id="Shape" fill="#B6872D"></path>
                <path d="M46.47,60.74 C46.823224,60.791109 47.1823831,60.7013192 47.47,60.49 L47.47,60.49 L47.27,61.14 L44.4,61.14 C44.58,61.03 44.64,60.91 44.64,60.63 L44.64,57.12 C44.6740628,56.9138701 44.5789591,56.7078121 44.4,56.6 L47.1,56.6 L47.19,57.18 L47.19,57.18 C47.0047305,57.0452226 46.7787997,56.9781493 46.55,56.99 L45.15,56.99 L45.15,58.44 L46.52,58.44 C46.6350339,58.4676032 46.7549661,58.4676032 46.87,58.44 L46.87,59.01 C46.8093262,58.9580789 46.7420819,58.9143701 46.67,58.88 C46.5405185,58.8635799 46.4094815,58.8635799 46.28,58.88 L45.15,58.88 L45.15,60.83 L46.47,60.74 Z" id="Path" fill="#B6872D"></path>
                <path d="M49.69,60.6 L49.69,57.12 C49.720667,56.9167299 49.6310247,56.7140603 49.46,56.6 L50.46,56.6 C50.2889753,56.7140603 50.199333,56.9167299 50.23,57.12 L50.23,60.74 L51.63,60.74 C51.9831118,60.7889576 52.3414697,60.6993681 52.63,60.49 L52.63,60.49 L52.42,61.14 L49.46,61.14 C49.63,61 49.69,60.88 49.69,60.6 Z" id="Path" fill="#B6872D"></path>
                <path d="M57.94,60.6 L57.94,57.12 C57.9740628,56.9138701 57.8789591,56.7078121 57.7,56.6 L59.05,56.6 C59.3495207,56.5844275 59.6496607,56.6147788 59.94,56.69 C60.3653709,56.8329939 60.6433915,57.2418476 60.62,57.69 C60.62,58.28 60.26,58.63 59.52,58.77 C59.6054072,58.8147396 59.685853,58.8683701 59.76,58.93 L59.93,59.09 C60.0164944,59.1916377 60.0966462,59.2985068 60.17,59.41 L61,60.54 C61.0183291,60.5796212 61.0418708,60.6166153 61.07,60.65 C61.1380216,60.7530547 61.2224744,60.8442638 61.32,60.92 C61.4260394,61.0012058 61.5441351,61.0653149 61.67,61.11 L60.74,61.11 L59.59,59.44 C59.4671316,59.2385274 59.3036632,59.0648422 59.11,58.93 C58.9127874,58.828333 58.6912492,58.7833331 58.47,58.8 L58.47,60.6 C58.47,60.88 58.53,61 58.71,61.11 L57.71,61.11 C57.88,61 57.94,60.88 57.94,60.6 Z M58.94,58.47 C59.1095371,58.4877421 59.2804629,58.4877421 59.45,58.47 C59.8134574,58.4097458 60.0750543,58.0881103 60.06,57.72 C60.0679626,57.5182199 59.9787157,57.3248517 59.82,57.2 C59.5209127,57.0170387 59.1653485,56.9494815 58.82,57.01 L58.44,57.01 L58.44,58.49 C58.5935902,58.4921712 58.7471779,58.4854935 58.9,58.47 L58.94,58.47 Z" id="Shape" fill="#B6872D"></path>
                <path d="M65.52,60.74 C65.8730547,60.7879085 66.2310263,60.6984156 66.52,60.49 L66.52,60.49 L66.31,61.14 L63.45,61.14 C63.63,61.03 63.69,60.91 63.69,60.63 L63.69,57.12 C63.7240628,56.9138701 63.6289591,56.7078121 63.45,56.6 L66.16,56.6 L66.24,57.18 L66.24,57.18 C66.0610518,57.0402996 65.8363482,56.9725318 65.61,56.99 L64.2,56.99 L64.2,58.44 L65.58,58.44 C65.6952725,58.465507 65.8147275,58.465507 65.93,58.44 L66,59 C65.937665,58.9453594 65.8667031,58.9014306 65.79,58.87 C65.6605185,58.8535799 65.5294815,58.8535799 65.4,58.87 L64.2,58.87 L64.2,60.82 L65.52,60.74 Z" id="Path" fill="#B6872D"></path>
                <path d="M68.42,60.31 C68.7703892,60.6680899 69.2601898,60.8545066 69.76,60.82 C70.48,60.82 70.94,60.45 70.94,59.88 C70.9452143,59.6702072 70.8573515,59.468855 70.7,59.33 C70.54,59.19 70.45,59.16 69.81,58.92 C69.5231798,58.8290486 69.2479779,58.7048722 68.99,58.55 C68.698941,58.3892284 68.5187426,58.0825075 68.52,57.75 C68.52,56.97 69.12,56.52 70.15,56.52 C70.4487598,56.5233485 70.7466182,56.553469 71.04,56.61 L71.12,57.22 C70.7905575,56.9951712 70.3987162,56.879718 70,56.89 C69.41,56.89 69,57.18 69,57.62 C68.9994744,57.7719997 69.0566585,57.9185338 69.16,58.03 C69.4242782,58.2449718 69.7309664,58.4017235 70.06,58.49 C70.421979,58.5765987 70.7623339,58.7365654 71.06,58.96 C71.3032651,59.1701953 71.4391246,59.478633 71.43,59.8 C71.43,60.67 70.74,61.19 69.58,61.19 C69.2423112,61.1922568 68.9058876,61.1485218 68.58,61.06 L68.5,61.06 L68.42,60.31 Z" id="Path" fill="#B6872D"></path>
                <path d="M73.41,58.89 C73.353107,58.0229649 73.7833876,57.196304 74.5262091,56.7455237 C75.2690306,56.2947435 76.2009694,56.2947435 76.9437909,56.7455237 C77.6866124,57.196304 78.116893,58.0229649 78.06,58.89 C78.0737028,59.5129635 77.8329558,60.1146118 77.393292,60.5561625 C76.9536282,60.9977133 76.3530165,61.2410348 75.73,61.23 C75.1215655,61.260354 74.5275851,61.0382101 74.0883872,60.6160501 C73.6491893,60.19389 73.4037303,59.6091589 73.41,59 L73.41,58.89 Z M75.74,60.89 C76.6968545,60.7223763 77.3948913,59.8914259 77.3948913,58.92 C77.3948913,57.9485741 76.6968545,57.1176237 75.74,56.95 C74.7831455,57.1176237 74.0851087,57.9485741 74.0851087,58.92 C74.0851087,59.8914259 74.7831455,60.7223763 75.74,60.89 Z" id="Shape" fill="#B6872D"></path>
                <path d="M80.5,60.6 L80.5,57.12 C80.530667,56.9167299 80.4410247,56.7140603 80.27,56.6 L81.62,56.6 C81.9162257,56.5841803 82.2131093,56.6145434 82.5,56.69 C82.9293385,56.8293947 83.212062,57.2391389 83.19,57.69 C83.19,58.28 82.83,58.63 82.08,58.77 C82.1654072,58.8147396 82.245853,58.8683701 82.32,58.93 C82.3839216,58.9750579 82.4411543,59.028924 82.49,59.09 C82.5764944,59.1916377 82.6566462,59.2985068 82.73,59.41 L83.54,60.56 C83.5623369,60.5996281 83.5891819,60.63654 83.62,60.67 C83.6859148,60.7746892 83.770683,60.8662388 83.87,60.94 C83.9744984,61.0235544 84.0930051,61.0878867 84.22,61.13 L83.29,61.13 L82.14,59.46 C82.0137587,59.2578923 81.8468984,59.0842214 81.65,58.95 C81.4526939,58.8374353 81.22668,58.7852782 81,58.8 L81,60.6 C81,60.88 81.06,61 81.23,61.11 L80.23,61.11 C80.44,61 80.5,60.88 80.5,60.6 Z M81.5,58.47 C81.6695371,58.4877421 81.8404629,58.4877421 82.01,58.47 C82.3734574,58.4097458 82.6350543,58.0881103 82.62,57.72 C82.6303603,57.5199588 82.5449743,57.3269124 82.39,57.2 C82.0949692,57.0159951 81.7433236,56.9449556 81.4,57 L81,57 L81,58.48 C81.1533946,58.4859611 81.3070094,58.4826217 81.46,58.47 L81.5,58.47 Z" id="Shape" fill="#B6872D"></path>
                <path d="M87.28,60.6 L87.28,57 L86.43,57 C86.1911065,56.9610006 85.951754,57.0669435 85.82,57.27 L85.9,56.63 L89.17,56.63 L89.26,57.27 C89.1232401,57.06731 88.8815511,56.9620584 88.64,57 L87.8,57 L87.8,60.6 C87.8,60.88 87.8,61 88.03,61.11 L87,61.11 C87.22,61 87.28,60.88 87.28,60.6 Z" id="Path" fill="#B6872D"></path>
                <path d="M94.63,60.6 L94.63,57.12 C94.6586,56.9146436 94.5648263,56.7114673 94.39,56.6 L96,56.6 C96.83,56.6 97.34,57 97.34,57.66 C97.3500856,58.0796292 97.080734,58.4550891 96.68,58.58 C96.8793598,58.6276452 97.0666492,58.716182 97.23,58.84 C97.5102738,59.0696661 97.6659106,59.4179962 97.65,59.78 C97.6614271,60.1973249 97.4670219,60.5936123 97.13,60.84 C96.7512897,61.0665441 96.3082855,61.1614735 95.87,61.11 L94.35,61.11 C94.5406577,61.0151315 94.6522986,60.8117857 94.63,60.6 Z M95.63,58.42 C95.904848,58.445226 96.1818335,58.4076106 96.44,58.31 C96.6698632,58.1967656 96.8082425,57.9555902 96.79,57.7 C96.79,57.22 96.48,56.97 95.88,56.97 L95.1,56.97 L95.1,58.42 L95.63,58.42 Z M95.71,60.74 C95.9458649,60.7675494 96.1841351,60.7675494 96.42,60.74 C96.832791,60.6433228 97.1157893,60.2631759 97.09,59.84 C97.1077019,59.5463216 96.9807433,59.2625319 96.75,59.08 C96.4560709,58.8830383 96.1013052,58.7978945 95.75,58.84 L95.05,58.84 L95.05,60.79 L95.71,60.74 Z" id="Shape" fill="#B6872D"></path>
                <path d="M100.78,61.11 C100.96,61 101.02,60.88 101.02,60.6 L101.02,59 L100,57.2 L99.8,56.89 C99.7169244,56.7855409 99.6152063,56.6973852 99.5,56.63 L99.5,56.63 L100.5,56.63 C100.448645,56.6839231 100.42,56.7555348 100.42,56.83 C100.430021,56.9239209 100.464501,57.0135706 100.52,57.09 L101.4,58.55 L102.27,57.07 C102.3212,56.9996371 102.35231,56.9166791 102.36,56.83 C102.355373,56.7545939 102.323368,56.6834729 102.27,56.63 L103.16,56.63 C102.93,56.78 102.88,56.85 102.57,57.35 L101.57,58.99 L101.57,60.6 C101.57,60.88 101.57,61 101.8,61.11 L100.78,61.11 Z" id="Path" fill="#B6872D"></path>
                <path d="M108.12,61.11 C108.29,61 108.35,60.88 108.35,60.6 L108.35,57.12 C108.380667,56.9167299 108.291025,56.7140603 108.12,56.6 L109.12,56.6 C108.948975,56.7140603 108.859333,56.9167299 108.89,57.12 L108.89,58.43 L110.15,57.07 C110.28,56.93 110.33,56.86 110.33,56.78 C110.328536,56.7071409 110.291088,56.6397346 110.23,56.6 L111.23,56.6 C111.142783,56.6330205 111.061674,56.6803343 110.99,56.74 C110.855376,56.836646 110.731352,56.9472614 110.62,57.07 L110.46,57.24 L109.31,58.48 C109.492796,58.4954542 109.670135,58.5500199 109.83,58.64 C110.027885,58.7762979 110.197647,58.9494556 110.33,59.15 L111.33,60.58 C111.486929,60.8193774 111.713932,61.0044718 111.98,61.11 L111.08,61.11 L110.08,59.68 C109.90859,59.3877432 109.676756,59.1354526 109.4,58.94 C109.23224,58.8358007 109.037383,58.7836069 108.84,58.79 L108.84,60.6 C108.84,60.88 108.9,61 109.07,61.11 L108.12,61.11 Z" id="Path" fill="#B6872D"></path>
                <path d="M113.87,60.78 L115.37,57.13 C115.419181,57.029683 115.449679,56.9212466 115.46,56.81 C115.452604,56.7281909 115.413041,56.6526617 115.35,56.6 L116,56.6 L117.64,60.6 L117.77,60.86 C117.839851,60.9619921 117.928008,61.0501487 118.03,61.12 L117.03,61.12 C117.101698,61.0645611 117.145545,60.9805222 117.15,60.89 C117.142455,60.7966294 117.11877,60.7052752 117.08,60.62 L116.57,59.34 L114.87,59.34 L114.33,60.69 C114.31431,60.7624941 114.31431,60.8375059 114.33,60.91 C114.33,60.99 114.33,61.04 114.45,61.12 L113.61,61.12 C113.73369,61.0404822 113.825668,60.920203 113.87,60.78 L113.87,60.78 Z M116.45,59 L115.75,57.24 L115,59 L116.45,59 Z" id="Shape" fill="#B6872D"></path>
                <path d="M120,60.6 L120,57.12 C120.034063,56.9138701 119.938959,56.7078121 119.76,56.6 L121.11,56.6 C121.409521,56.5844275 121.709661,56.6147788 122,56.69 C122.425371,56.8329939 122.703391,57.2418476 122.68,57.69 C122.68,58.28 122.32,58.63 121.58,58.77 C121.66109,58.8166748 121.738038,58.8702034 121.81,58.93 C121.873922,58.9750579 121.931154,59.028924 121.98,59.09 C122.06,59.18 122.1,59.24 122.23,59.41 L123.04,60.56 C123.058329,60.5996212 123.081871,60.6366153 123.11,60.67 C123.175915,60.7746892 123.260683,60.8662388 123.36,60.94 C123.466039,61.0212058 123.584135,61.0853149 123.71,61.13 L122.78,61.13 L121.63,59.46 C121.507132,59.2585274 121.343663,59.0848422 121.15,58.95 C120.952787,58.848333 120.731249,58.8033331 120.51,58.82 L120.51,60.62 C120.51,60.9 120.57,61.02 120.75,61.13 L119.75,61.13 C119.92,61 120,60.88 120,60.6 Z M121,58.47 C121.166192,58.4877809 121.333808,58.4877809 121.5,58.47 C121.865093,58.4101369 122.129875,58.0898365 122.12,57.72 C122.127963,57.5182199 122.038716,57.3248517 121.88,57.2 C121.594782,57.0288457 121.259107,56.9617106 120.93,57.01 L120.55,57.01 L120.55,58.49 C120.680248,58.4896869 120.810403,58.4830123 120.94,58.47 L121,58.47 Z" id="Shape" fill="#B6872D"></path>
                <path d="M125.59,60.6 L125.59,57.12 C125.620667,56.9167299 125.531025,56.7140603 125.36,56.6 L126.36,56.6 C126.188975,56.7140603 126.099333,56.9167299 126.13,57.12 L126.13,60.6 C126.13,60.88 126.19,61 126.36,61.11 L125.36,61.11 C125.53,61 125.59,60.88 125.59,60.6 Z" id="Path" fill="#B6872D"></path>
                <path d="M128.44,60.31 C128.790389,60.6680899 129.28019,60.8545066 129.78,60.82 C130.5,60.82 130.96,60.45 130.96,59.88 C130.965214,59.6702072 130.877351,59.468855 130.72,59.33 C130.56,59.19 130.47,59.16 129.83,58.92 C129.54318,58.8290486 129.267978,58.7048722 129.01,58.55 C128.718941,58.3892284 128.538743,58.0825075 128.54,57.75 C128.54,56.97 129.14,56.52 130.17,56.52 C130.46876,56.5233485 130.766618,56.553469 131.06,56.61 L131.14,57.22 C130.821766,57.0030841 130.445125,56.8879996 130.06,56.89 C129.47,56.89 129.06,57.18 129.06,57.62 C129.059474,57.7719997 129.116658,57.9185338 129.22,58.03 C129.482907,58.2470672 129.790071,58.4040625 130.12,58.49 C130.481065,58.5791909 130.820921,58.7389232 131.12,58.96 C131.363265,59.1701953 131.499125,59.478633 131.49,59.8 C131.49,60.67 130.8,61.19 129.64,61.19 C129.285594,61.1969145 128.932019,61.1531385 128.59,61.06 L128.51,61.06 L128.44,60.31 Z" id="Path" fill="#B6872D"></path>
                <path d="M133.72,60.59 L134.11,57.23 C134.11,57.14 134.11,57.03 134.11,56.97 C134.11647,56.8217635 134.044244,56.6811133 133.92,56.6 L134.7,56.6 L136.15,60 L137.56,56.58 L138.33,56.58 C138.199233,56.6646972 138.126096,56.814822 138.14,56.97 C138.132732,57.0364686 138.132732,57.1035314 138.14,57.17 L138.56,60.51 C138.548837,60.7338045 138.645495,60.9494263 138.82,61.09 L137.89,61.09 C138.013187,61.0004391 138.078237,60.8512075 138.06,60.7 C138.065412,60.6301046 138.065412,60.5598954 138.06,60.49 L137.68,57.32 L136.08,61.17 L134.48,57.32 L134.09,60.61 L134.09,60.74 C134.08002,60.8763428 134.140361,61.0083402 134.25,61.09 L133.45,61.09 C133.63,61 133.69,60.88 133.72,60.59 Z" id="Path" fill="#B6872D"></path>
                <path d="M140.76,60.78 L142.26,57.13 C142.309181,57.029683 142.339679,56.9212466 142.35,56.81 C142.342604,56.7281909 142.303041,56.6526617 142.24,56.6 L142.91,56.6 L144.56,60.6 C144.56,60.7 144.64,60.78 144.68,60.86 C144.749851,60.9619921 144.838008,61.0501487 144.94,61.12 L143.94,61.12 C144.011698,61.0645611 144.055545,60.9805222 144.06,60.89 C144.057477,60.7958515 144.033538,60.703515 143.99,60.62 L143.48,59.34 L141.78,59.34 L141.24,60.69 C141.207434,60.7587905 141.190366,60.8338912 141.19,60.91 C141.19,60.99 141.19,61.04 141.31,61.12 L140.47,61.12 C140.604965,61.0459102 140.708127,60.924962 140.76,60.78 L140.76,60.78 Z M143.34,59 L142.64,57.24 L141.94,59 L143.34,59 Z" id="Shape" fill="#B6872D"></path>
            </g>
        </g>
    </g>
</svg>