<svg version="1.1" id="Layer_1" xmlns="http://www.w3.org/2000/svg" xmlns:xlink="http://www.w3.org/1999/xlink" x="0px" y="0px"
	 viewBox="0 0 210.5 49.8" style="enable-background:new 0 0 210.5 49.8;" xml:space="preserve">
<style type="text/css">
	.st0{fill:#BBBBBB;}
	.st1{fill:url(#SVGID_1_);}
</style>
<g>
	<g>
		<path class="st0" d="M6.8,41.3v8.3H5.4v-3.5H1.3v3.5H0v-8.3h1.3v3.5h4.1v-3.5H6.8z"/>
		<path class="st0" d="M14.1,45.5c0.2-5.6,8.3-5.6,8.5,0C22.4,51.1,14.2,51.1,14.1,45.5z M15.4,45.5c0.1,3.9,5.7,3.9,5.8,0
			C21.1,41.6,15.5,41.6,15.4,45.5z"/>
		<path class="st0" d="M28.9,41.3h5.6v1.3h-2.1v7H31v-7h-2.1V41.3z"/>
		<path class="st0" d="M41.5,41.3H47v1.3h-4.2v2.2h3.7v1.3h-3.7v2.3h4.3v1.3h-5.7V41.3z"/>
		<path class="st0" d="M54.5,41.3h1.3v7h4.1v1.3h-5.4V41.3z"/>
		<path class="st0" d="M71.7,43c-0.8-0.4-2.1-0.9-2.9-0.3c-0.4,0.3-0.5,1-0.1,1.4c1,0.9,2.8,0.9,3.4,2.3c1.1,3.4-3.2,4.2-5.4,2.5
			l0.6-1c0.8,0.5,1.8,1,2.8,0.6c0.7-0.2,1.1-1.1,0.6-1.7c-0.7-0.8-2-0.9-2.8-1.6c-1.2-0.9-0.9-3,0.4-3.6c1.2-0.6,2.9-0.3,3.9,0.4
			L71.7,43z"/>
		<path class="st0" d="M92.6,49.7L91,47.6l1.1-2.9h-1.2l-0.7,1.8L88.3,44c-1.2-1.7,0.7-2.5,1.9-1.1l0.7-0.9c-1.4-1.8-5-1.1-4.2,1.6
			c0,0.2,0.3,0.7,0.8,1.3c-1.6,0.5-2.8,2.2-1.8,3.8c1,1.6,3.6,1.6,4.7,0.2c0.3,0.4,0.6,0.8,0.7,0.9C91.6,49.7,92.1,49.7,92.6,49.7z
			 M86.9,47.9c-0.6-0.9,0.2-2.1,1.2-2.2c0.5,0.7,1.1,1.4,1.6,2.1C89.1,48.8,87.5,48.9,86.9,47.9z"/>
		<path class="st0" d="M112.1,49.7l-2-3.2c2.3-1.2,1.6-5.3-1.7-5.1H106v8.3h1.3v-2.9c0,0,1.2,0,1.2,0c0,0,0.1,0,0.1,0l1.9,2.9H112.1
			z M107.3,42.6c0.5,0,1.6-0.1,2,0.1c1.3,0.7,0.8,2.9-0.8,2.7h-1.2V42.6z"/>
		<path class="st0" d="M119.1,41.3h5.5v1.3h-4.2v2.2h3.7v1.3h-3.7v2.3h4.3v1.3h-5.7V41.3z"/>
		<path class="st0" d="M136.6,43c-0.8-0.4-2.1-0.9-2.9-0.3c-0.4,0.3-0.5,1-0.1,1.4c1,0.9,2.8,0.9,3.4,2.3c1.1,3.4-3.2,4.2-5.4,2.5
			l0.6-1c0.8,0.5,1.8,1,2.8,0.6c0.7-0.2,1.1-1.1,0.6-1.7c-0.7-0.8-2-0.9-2.8-1.6c-1.2-0.9-0.9-3,0.4-3.6c1.2-0.6,2.9-0.3,3.9,0.4
			L136.6,43z"/>
		<path class="st0" d="M143.8,45.5c0.2-5.6,8.3-5.6,8.5,0C152.2,51.1,144,51.1,143.8,45.5z M145.2,45.5c0.1,3.9,5.7,3.9,5.8,0
			C150.9,41.6,145.3,41.6,145.2,45.5z"/>
		<path class="st0" d="M165.7,49.7l-2-3.2c2.3-1.2,1.6-5.3-1.7-5.1h-2.3v8.3h1.3v-2.9c0,0,1.2,0,1.2,0c0,0,0.1,0,0.1,0l1.9,2.9
			H165.7z M161,42.6c0.5,0,1.6-0.1,2,0.1c1.3,0.7,0.8,2.9-0.8,2.7H161V42.6z"/>
		<path class="st0" d="M172,41.3h5.6v1.3h-2.1v7h-1.3v-7H172V41.3z"/>
		<path class="st0" d="M189,43c-0.8-0.4-2.1-0.9-2.9-0.3c-0.4,0.3-0.5,1-0.1,1.4c1,0.9,2.8,0.9,3.4,2.3c1.1,3.4-3.2,4.2-5.4,2.5
			l0.6-1c0.8,0.5,1.8,1,2.8,0.6c0.7-0.2,1.1-1.1,0.6-1.7c-0.7-0.8-2-0.9-2.8-1.6c-1.2-0.9-0.9-3,0.4-3.6c1.2-0.6,2.9-0.3,3.9,0.4
			L189,43z"/>
	</g>
	<linearGradient id="SVGID_1_" gradientUnits="userSpaceOnUse" x1="63.4319" y1="-35.9662" x2="137.1407" y2="91.7013">
		<stop  offset="5.011341e-02" style="stop-color:#4B5995"/>
		<stop  offset="0.1772" style="stop-color:#5379AF"/>
		<stop  offset="0.3748" style="stop-color:#5FA5D3"/>
		<stop  offset="0.475" style="stop-color:#63B6E1"/>
		<stop  offset="1" style="stop-color:#A4CFEB"/>
	</linearGradient>
	<path class="st1" d="M43.7,0l15,34.2h-4.3l-2-4.9H40.3l1.4-3.7h9.1l-7-16.2L33.1,34.2h-4.2L43.7,0z M24.9,0.7h-5L4.8,17.4L20,34.2
		l0.1,0.1h5.3L9.8,17.1L24.9,0.7z M0,34.6h4V0.7H0V34.6z M87.2,11.3c0-2.8-1-5.2-2.9-7c-1.9-1.9-4.3-2.8-7-2.8H64v32.8h4v-29h9.1
		c3.4,0,6,2.6,6,6.1c0,1.9-0.6,3.3-1.8,4.6c-1.2,1.2-2.6,1.8-4.5,1.8l-2.5,0c-1,0-1.9,0.8-1.9,1.9c0,1,0.8,1.9,1.9,1.9
		c0,0,2,0,2.6,0l7.3,12.8h4.6l-7.9-13.6C84.8,19.1,87.2,15.5,87.2,11.3z M188.3,0l-14.3,34.2h4.2l10.2-24.8l7.3,16.2h-9.1l-1.3,3.7
		h12.1l8.7,20h4.3L188.3,0z M136.1,0.1v34.2h4V11.9L152.5,29L165,11.9v22.3h4V0.1l-16.5,22.5L136.1,0.1z M119.4,15.1
		c-2.2-1.1-3.9-2.1-4.8-3c-0.9-0.8-1.3-1.8-1.3-3.1c0-2.7,2.2-4.4,5.8-4.4c2,0,5.2,0.8,7.3,2.9l0.3,0.3V3.2l-0.1-0.1
		c-1.6-1.4-4.6-2.3-7.5-2.3c-5.9,0-9.9,3.3-9.9,8.1c0,2.5,0.8,4.3,2.5,5.8c0.8,0.7,1.6,1.3,2.5,1.9c0.7,0.5,1.7,1,3.4,1.9
		c2.7,1.4,4.6,2.6,5.6,3.6c1,0.9,1.5,2.3,1.5,4c0,2.4-2.3,4.9-6.8,4.9c-3.7,0-7-1.7-9.7-4.9l-0.3-0.4v5.1l0.1,0.1
		c2.7,2.6,6.1,3.9,10.3,3.9c3.2,0,5.6-0.8,7.6-2.6c2-1.8,2.9-3.8,2.9-6.1c0-2.9-0.9-5-2.8-6.7C124.2,17.8,122.7,16.7,119.4,15.1z
		 M99.8,2.5L99.8,2.5c-0.1-1-1-1.8-2-1.8c-1,0-1.9,0.8-2,1.8l0,31.7h4V2.7C99.8,2.7,99.8,2.6,99.8,2.5L99.8,2.5z"/>
</g>
</svg>
