<?xml version="1.0" encoding="utf-8"?>
<!-- Generator: Adobe Illustrator 24.2.3, SVG Export Plug-In . SVG Version: 6.00 Build 0)  -->
<svg version="1.1" id="Layer_1" xmlns="http://www.w3.org/2000/svg" xmlns:xlink="http://www.w3.org/1999/xlink" x="0px" y="0px"
	 width="200.9px" height="134.9px" viewBox="0 0 200.9 134.9" style="enable-background:new 0 0 200.9 134.9;" xml:space="preserve"
	>
<style type="text/css">
	.st0{fill:#6F7271;}
	.st1{fill:#FF9E18;}
</style>
<g>
	<g>
		<path class="st0" d="M5.2,118.9H3.5v-15H6c1.3,0,2.6,0,3.7,0.8s1.7,2.1,1.7,3.4c0,1.2-0.5,2.5-1.4,3.2c-1,0.8-2.3,1-3.6,1H5.2
			C5.2,112.3,5.2,118.9,5.2,118.9z M5.2,110.8h1.1c1.9,0,3.4-0.6,3.4-2.7c0-2.5-2-2.6-3.9-2.6H5.2C5.2,105.5,5.2,110.8,5.2,110.8z"
			/>
		<path class="st0" d="M27.1,114.7l-1.8,4.3h-1.8l6.9-15.7l6.8,15.7h-1.9l-1.8-4.3H27.1z M30.4,107.1l-2.6,6h5.1L30.4,107.1z"/>
		<path class="st0" d="M53.3,117.4h4.1v1.6h-5.8v-15h1.7C53.3,104,53.3,117.4,53.3,117.4z"/>
		<path class="st0" d="M74.2,114.7l-1.8,4.3h-1.8l6.9-15.7l6.8,15.7h-1.9l-1.8-4.3H74.2z M77.5,107.1l-2.6,6H80L77.5,107.1z"/>
		<path class="st0" d="M100.5,105.5v4.5h5v1.6h-5v7.5h-1.7v-15h6.8v1.6h-5.1V105.5z"/>
		<path class="st0" d="M122.9,118.9h-1.7v-15h1.7V118.9z"/>
		<path class="st0" d="M142.8,118.9h-1.7v-13.5h-3.6v-1.6h9v1.6h-3.7V118.9z"/>
		<path class="st0" d="M175.9,111.4c0,4.3-3.5,7.7-7.8,7.7s-7.8-3.4-7.8-7.7s3.5-7.8,7.8-7.8S175.9,107.1,175.9,111.4z M161.9,111.4
			c0,3.4,2.7,6.2,6.2,6.2c3.4,0,6.2-2.8,6.2-6.2s-2.7-6.2-6.2-6.2C164.7,105.2,161.9,108,161.9,111.4z"/>
		<path class="st0" d="M197.9,106.8c-0.6-1-1.3-1.6-2.6-1.6s-2.5,1-2.5,2.3s1.3,1.9,2.4,2.4l1,0.4c2,0.9,3.6,1.8,3.6,4.2
			c0,2.6-2.1,4.6-4.7,4.6c-2.4,0-4.2-1.6-4.7-3.9l1.6-0.5c0.2,1.5,1.4,2.8,3,2.8s3.1-1.2,3.1-2.9c0-1.8-1.4-2.4-2.8-3l-0.9-0.4
			c-1.8-0.8-3.3-1.7-3.3-3.8c0-2.3,2-3.8,4.2-3.8c1.7,0,3.1,0.9,3.9,2.3L197.9,106.8z"/>
	</g>
	<g>
		<path class="st1" d="M123.1,6.1c-4.4-2.9-9.3-4.9-13.7-6.1H92.7C88.3,1.2,83.4,3.2,79,6.1c-3.5,2.3-7,5.1-9.9,8.3l5.5,5.5
			c2.6-2.9,5.8-5.5,9.2-7.6C88,9.7,92.4,8,97.2,7v39.3l3.9,4.9l3.9-4.9V7c4.7,1,9.2,2.7,13.4,5.3c3.4,2.1,6.7,4.8,9.2,7.6l5.5-5.5
			C130.2,11.2,126.7,8.4,123.1,6.1z"/>
		<path class="st1" d="M78.9,31.9L63.3,16.3c-2.6,1.6-3.6,2.4-5.5,5.5l15.6,15.6C76.2,35.5,77.1,34.7,78.9,31.9z"/>
		<path class="st1" d="M133.9,75.6L118.3,60c-2.6,1.6-3.6,2.4-5.5,5.5l15.6,15.6C131.2,79.2,132.1,78.5,133.9,75.6z"/>
		<path class="st1" d="M123.3,31.9l15.6-15.6c2.6,1.6,3.6,2.4,5.5,5.5l-15.6,15.6C126,35.5,125.1,34.7,123.3,31.9z"/>
		<path class="st1" d="M68.3,75.6L83.9,60c2.6,1.6,3.6,2.4,5.5,5.5L73.8,81.1C70.9,79.2,70.1,78.4,68.3,75.6z"/>
		<polygon class="st1" points="85.4,51.8 91.3,46.6 101.1,56.3 110.9,46.6 116.7,51.8 105,63.5 105,71.4 101.1,76.3 97.2,71.4 
			97.2,63.5 		"/>
		<path class="st1" d="M94.2,25.1V13.4l-7.8,3.8v7.7c-1,10.8-7.3,16.8-14.4,18.6h-9.8v-8.7l0.3-0.6l-5.7-5.7l-2.4,4.3v18.3h18.4
			C77.8,50.2,92.1,45.9,94.2,25.1z"/>
		<path class="st1" d="M108,25.1V13.4l7.8,3.8v7.7c1,10.8,7.3,16.8,14.4,18.6h9.8v-8.7l-0.3-0.6l5.7-5.7l2.4,4.3v18.3h-18.4
			C124.5,50.2,110.1,45.9,108,25.1z"/>
		<path class="st1" d="M80.6,96.4h11.7l-3.8-7.8h-7.7C70,87.7,64,81.3,62.2,74.3v-9.8h8.7l0.6,0.3l5.7-5.7l-4.3-2.4H54.5v18.4
			C55.5,80,59.7,94.3,80.6,96.4z"/>
		<path class="st1" d="M121.5,96.3h-11.7l3.8-7.8h7.7c10.8-1,16.8-7.3,18.6-14.4v-9.8h-8.7l-0.6,0.3l-5.7-5.7l4.3-2.4h18.3v18.4
			C146.7,79.9,142.4,94.2,121.5,96.3z"/>
		<path class="st1" d="M110.6,70.9c-5.7,6.8-5.7,6.8-9.5,13.3c-3.8-6.5-3.8-6.5-9.5-13.3l-5.5,5.5c6.2,6.9,8.8,12.1,11.1,17.6v2.3
			h7.8V94c2.3-5.6,5-10.8,11.2-17.6L110.6,70.9z"/>
	</g>
	<g>
		<path class="st0" d="M1,134.7H0l3.7-8.6h0.8l3.7,8.6h-1l-0.9-2.2H1.9L1,134.7z M2.2,131.6h3.7l-1.8-4.5L2.2,131.6z"/>
		<path class="st0" d="M14.4,134.7h-0.9v-7.8h-2.9v-0.8h6.6v0.8h-2.9L14.4,134.7L14.4,134.7z"/>
		<path class="st0" d="M28.8,133.9h4.6v0.8H28v-8.6h5.3v0.8h-4.4v2.9H33v0.8h-4.1v3.3H28.8z"/>
		<path class="st0" d="M39,133.9h4v0.8h-4.9v-8.6H39V133.9z"/>
		<path class="st0" d="M53.5,126.1h2.8c2.1,0,4.5,1.4,4.5,4.3c0,2.9-2.4,4.3-4.5,4.3h-2.8C53.5,134.7,53.5,126.1,53.5,126.1z
			 M54.3,133.9H56c2.6,0,3.8-1.7,3.8-3.5s-1.2-3.5-3.8-3.5h-1.7V133.9z"/>
		<path class="st0" d="M69.5,134.9c-2.6,0-4.5-1.9-4.5-4.5s1.9-4.5,4.5-4.5s4.5,1.9,4.5,4.5C73.9,133,72,134.9,69.5,134.9z
			 M69.5,126.7c-2.2,0-3.5,1.7-3.5,3.7s1.3,3.7,3.5,3.7s3.5-1.7,3.5-3.7C73,128.4,71.7,126.7,69.5,126.7z"/>
		<path class="st0" d="M79.6,134.7h-0.9v-8.6h2.6c1.7,0,2.8,0.7,2.8,2.3c0,1.2-0.8,2.1-2.2,2.2l2.5,4.1h-1.1l-2.3-4h-1.5L79.6,134.7
			L79.6,134.7z M79.6,129.9h1.5c1.6,0,2.1-0.7,2.1-1.5s-0.5-1.5-2.1-1.5h-1.5V129.9z"/>
		<path class="st0" d="M88.7,134.7h-1l3.7-8.6h0.8l3.7,8.6h-1l-0.9-2.2h-4.4L88.7,134.7z M90,131.6h3.7l-1.8-4.5L90,131.6z"/>
		<path class="st0" d="M100.1,126.1h2.8c2.1,0,4.5,1.4,4.5,4.3c0,2.9-2.4,4.3-4.5,4.3h-2.8V126.1z M100.9,133.9h1.7
			c2.6,0,3.8-1.7,3.8-3.5s-1.2-3.5-3.8-3.5h-1.7V133.9z"/>
		<path class="st0" d="M116.1,134.9c-2.6,0-4.5-1.9-4.5-4.5s1.9-4.5,4.5-4.5s4.5,1.9,4.5,4.5C120.5,133,118.6,134.9,116.1,134.9z
			 M116.1,126.7c-2.2,0-3.5,1.7-3.5,3.7s1.3,3.7,3.5,3.7s3.5-1.7,3.5-3.7C119.6,128.4,118.3,126.7,116.1,126.7z"/>
		<path class="st0" d="M135.9,133.1l2.9-7h1.3v8.6h-0.9v-7.4l0,0l-3.1,7.4h-0.5l-3.1-7.4l0,0v7.4h-0.9v-8.6h1.3L135.9,133.1z"/>
		<path class="st0" d="M145.3,134.7h-1l3.7-8.6h0.8l3.7,8.6h-1l-0.9-2.2h-4.4L145.3,134.7z M146.6,131.6h3.7l-1.8-4.5L146.6,131.6z"
			/>
		<path class="st0" d="M157.6,134.7h-0.9v-8.6h2.6c1.7,0,2.8,0.7,2.8,2.3c0,1.2-0.8,2.1-2.2,2.2l2.5,4.1h-1.1l-2.3-4h-1.5
			L157.6,134.7L157.6,134.7z M157.6,129.9h1.5c1.6,0,2.1-0.7,2.1-1.5s-0.5-1.5-2.1-1.5h-1.5V129.9z"/>
		<path class="st0" d="M170.8,134.9c-2.6,0-4.5-1.9-4.5-4.5s1.9-4.5,4.5-4.5s4.5,1.9,4.5,4.5C175.3,133,173.4,134.9,170.8,134.9z
			 M170.8,126.7c-2.2,0-3.5,1.7-3.5,3.7s1.3,3.7,3.5,3.7s3.5-1.7,3.5-3.7C174.3,128.4,173,126.7,170.8,126.7z"/>
		<path class="st0" d="M184.3,133.1l2.9-7h1.3v8.6h-0.9v-7.4l0,0l-3.1,7.4H184l-3.1-7.4l0,0v7.4H180v-8.6h1.3L184.3,133.1z"/>
		<path class="st0" d="M193.7,134.7h-1l3.7-8.6h0.8l3.7,8.6h-1l-0.9-2.2h-4.4L193.7,134.7z M195,131.6h3.7l-1.8-4.5L195,131.6z"/>
	</g>
</g>
</svg>
