<?xml version="1.0" encoding="utf-8"?>
<!-- Generator: Adobe Illustrator 24.2.1, SVG Export Plug-In . SVG Version: 6.00 Build 0)  -->
<svg version="1.1" id="Layer_1" xmlns="http://www.w3.org/2000/svg" xmlns:xlink="http://www.w3.org/1999/xlink" x="0px" y="0px"
	 width="160px" height="84px" viewBox="0 0 160 84" style="enable-background:new 0 0 160 84;" xml:space="preserve">
<style type="text/css">
	.st0{fill:#FFFFFF;}
</style>
<path class="st0" d="M95.5,11.8v28H67.6v-28L95.5,11.8 M95.9,11.5H67.3v28.6h28.5C95.9,40.1,95.9,11.5,95.9,11.5z"/>
<rect x="68.5" y="12.6" width="26.2" height="26.2"/>
<path class="st0" d="M13.8,61.2v-4.4h-6v4.4H7v-9.5h0.7v4.4h6.1v-4.4h0.7v9.5H13.8z"/>
<path class="st0" d="M20.3,61.2v-9.5H21v9.5H20.3z"/>
<path class="st0" d="M30.3,61.2h-3.1v-9.5h3.1c2.6-0.1,4.8,1.8,5,4.5c0,0.1,0,0.2,0,0.3l0,0c0,2.6-2.1,4.8-4.7,4.8
	C30.5,61.2,30.4,61.2,30.3,61.2z M34.6,56.5c0.1-2.2-1.7-4-3.9-4.1c-0.1,0-0.3,0-0.4,0h-2.4v8.2h2.4c2.2,0.2,4.1-1.5,4.3-3.7
	C34.6,56.7,34.6,56.6,34.6,56.5L34.6,56.5z"/>
<path class="st0" d="M44.1,61.2H41v-9.5h3.1c2.6-0.2,4.8,1.8,5,4.4c0,0.1,0,0.2,0,0.3l0,0c0,2.6-2.1,4.7-4.7,4.8
	C44.3,61.2,44.2,61.2,44.1,61.2z M48.4,56.5c0.1-2.2-1.7-4-3.9-4.1c-0.1,0-0.3,0-0.4,0h-2.4v8.2h2.4c2.2,0.2,4.1-1.5,4.3-3.7
	C48.4,56.7,48.4,56.6,48.4,56.5L48.4,56.5z"/>
<path class="st0" d="M54.8,61.2v-9.5h6.7v0.7h-6v3.7h5.4v0.7h-5.4v3.8h6.1v0.7H54.8z"/>
<path class="st0" d="M75.2,61.2l-6.7-8.4v8.4h-0.7v-9.5h0.7L75,60v-8.3h0.7v9.5H75.2z"/>
<path class="st0" d="M94.8,61.2h-4.1v-9.5h3.9c1.8,0,3.1,0.9,3.1,2.3l0,0c0,1-0.7,2-1.6,2.3c1.1,0.3,2.1,1,2.1,2.3l0,0
	C98.2,60.2,96.8,61.2,94.8,61.2z M96.9,54.1c0-1-0.8-1.8-2.4-1.8h-3.2v3.7h3.1C95.9,56.1,96.9,55.4,96.9,54.1L96.9,54.1z M97.4,58.6
	c0-1.2-1-1.8-2.9-1.8h-3.2v3.8h3.4C96.4,60.5,97.5,59.8,97.4,58.6L97.4,58.6z"/>
<path class="st0" d="M103.9,61.2v-9.5h6.7v0.7h-6v3.7h5.3v0.7h-5.4v3.8h6.1v0.7H103.9z"/>
<path class="st0" d="M124.9,61.2l-1.2-2.7h-5.6l-1.2,2.7h-0.7l4.4-9.5h0.7l4.4,9.5H124.9z M120.9,52.4l-2.5,5.5h5L120.9,52.4z"/>
<path class="st0" d="M134.9,61.4c-2.6,0-4.7-2.1-4.7-4.7c0-0.1,0-0.1,0-0.2l0,0c-0.1-2.6,2-4.8,4.6-4.9c0,0,0.1,0,0.1,0
	c1.4,0,2.7,0.5,3.7,1.5l-0.5,0.5c-0.8-0.9-1.9-1.4-3.1-1.4c-2.2,0-4,1.8-4,4c0,0.1,0,0.2,0,0.2l0,0c-0.1,2.3,1.6,4.2,3.9,4.3
	c0,0,0.1,0,0.1,0c1.2,0,2.4-0.5,3.3-1.5l0.5,0.5C137.8,60.8,136.4,61.4,134.9,61.4z"/>
<path class="st0" d="M151.4,61.2v-4.4h-6v4.4h-0.7v-9.5h0.7v4.4h6v-4.4h0.7v9.5H151.4z"/>
<path class="st0" d="M81.8,26.7v4h3.8c0.9,0.1,1.9-0.3,2.5-1c-0.6,0.4-1.3,0.6-2,0.5h-3.8v-3.6L81.8,26.7z"/>
<path class="st0" d="M87.4,24.6c-0.6,0.4-1.2,0.5-1.9,0.5h-3.3v-3.5h-0.4v3.9h3.4C86,25.7,86.9,25.3,87.4,24.6z"/>
<path class="st0" d="M81.8,20.5h3.6c2.2,0,3.7,1.1,3.7,2.9c0,0.6-0.2,1.2-0.6,1.7c0.7-0.5,1-1.3,1-2.2c0-1.7-1.5-2.9-3.7-2.9h-4.9
	v0.4H81.8z"/>
<polygon class="st0" points="73.9,20.5 73.9,25.6 80.5,25.6 80.5,25.1 74.3,25.1 74.3,20 73,20 73,20.5 "/>
<rect x="73.9" y="26.8" class="st0" width="0.4" height="4.7"/>
<path class="st0" d="M87.9,25.6c-0.2,0.1-0.4,0.3-0.7,0.4c1.3,0.4,2.4,1.2,2.4,2.8c0,0.6-0.2,1.3-0.6,1.8c0.7-0.5,1-1.4,1-2.2
	C90.1,27,89.2,25.9,87.9,25.6z"/>
<path class="st0" d="M7.6,71.8l1.5-3.7c0-0.1,0.1-0.2,0.1-0.3c0-0.1,0-0.2-0.1-0.2h0.7l1.6,4c0.1,0.1,0.1,0.2,0.1,0.3
	c0.1,0.1,0.2,0.2,0.3,0.3h-1c0.1-0.1,0.1-0.1,0.1-0.2c0-0.1,0-0.2-0.1-0.3l-0.5-1.3H8.6l-0.5,1.3c0,0.1,0,0.1,0,0.2
	c0,0.1,0,0.1,0.1,0.2H7.3C7.4,72,7.5,71.9,7.6,71.8z M10.1,70l-0.7-1.8L8.7,70H10.1z"/>
<path class="st0" d="M14.3,67.6c-0.2,0.1-0.3,0.3-0.2,0.5v2.2c0,0.3,0,0.7,0.2,1c0.3,0.4,0.7,0.6,1.1,0.5c0.6,0.1,1.2-0.4,1.3-1
	c0-0.1,0-0.1,0-0.2v-2.4c0-0.3,0-0.4-0.2-0.5h0.9c-0.2,0.1-0.2,0.2-0.2,0.5v2.2c0,0.3,0,0.6-0.1,0.9c-0.3,0.6-0.9,1.1-1.6,1
	c-0.5,0-1-0.2-1.4-0.5c-0.3-0.4-0.5-0.9-0.4-1.4v-2.2c0-0.2-0.1-0.4-0.2-0.5L14.3,67.6z"/>
<path class="st0" d="M22.9,71.6v-3.4c0-0.2-0.1-0.4-0.2-0.6h0.7l2.7,3.3v-2.8c0-0.2-0.1-0.4-0.2-0.5h0.9c-0.2,0.1-0.3,0.3-0.2,0.5
	v4.1l-3.1-3.9v3.3c0,0.3,0.1,0.4,0.2,0.5h-0.9C22.8,72,22.9,71.9,22.9,71.6z"/>
<path class="st0" d="M28.7,71.8l1.5-3.7c0-0.1,0.1-0.2,0.1-0.3c0-0.1,0-0.2-0.1-0.2h0.7l1.6,4c0,0.1,0.1,0.2,0.1,0.3
	c0.1,0.1,0.1,0.2,0.2,0.3h-1c0.1-0.1,0.1-0.1,0.1-0.2c0-0.1,0-0.2-0.1-0.3l-0.5-1.3h-1.7l-0.5,1.3c0,0.1,0,0.1,0,0.2
	c0,0.1,0,0.1,0.1,0.2h-0.8C28.5,72,28.6,71.9,28.7,71.8z M31.2,70l-0.7-1.8L29.9,70H31.2z"/>
<path class="st0" d="M35.9,71.6V68h-0.8c-0.2,0-0.5,0.1-0.6,0.3l0.1-0.6h3.3l0.1,0.6c-0.1-0.2-0.4-0.3-0.6-0.3h-0.8v3.6
	c0,0.3,0,0.4,0.2,0.5h-1C35.9,72,35.9,71.9,35.9,71.6z"/>
<path class="st0" d="M40.9,67.6c-0.2,0.1-0.3,0.3-0.2,0.5v2.2c0,0.3,0,0.7,0.2,1c0.3,0.4,0.7,0.6,1.1,0.5c0.6,0.1,1.2-0.4,1.3-1
	c0-0.1,0-0.1,0-0.2v-2.4c0-0.2-0.1-0.4-0.3-0.5h0.9c-0.2,0.1-0.3,0.3-0.2,0.5v2.2c0,0.3,0,0.6-0.1,0.9c-0.3,0.6-0.9,1-1.6,1
	c-0.5,0-1-0.2-1.4-0.5c-0.3-0.4-0.5-0.9-0.4-1.4v-2.2c0-0.2-0.1-0.4-0.2-0.5L40.9,67.6z"/>
<path class="st0" d="M46,71.6v-3.5c0-0.2-0.1-0.4-0.2-0.5h1.3c0.3,0,0.6,0,0.9,0.1c0.4,0.1,0.7,0.6,0.7,1c0,0.6-0.4,0.9-1.1,1.1
	c0.1,0,0.2,0.1,0.2,0.2c0.1,0,0.1,0.1,0.2,0.2c0.1,0.1,0.2,0.2,0.2,0.3l0.8,1.2c0,0,0,0.1,0.1,0.1c0.1,0.1,0.2,0.2,0.2,0.3
	c0.1,0.1,0.2,0.1,0.3,0.2h-0.9l-1.2-1.7c-0.1-0.2-0.3-0.4-0.5-0.5c-0.2-0.1-0.4-0.1-0.6-0.1v1.8c0,0.3,0.1,0.4,0.2,0.5h-1
	C46,72,46,71.9,46,71.6z M47,69.5c0.2,0,0.3,0,0.5,0c0.4-0.1,0.6-0.4,0.6-0.8c0-0.2-0.1-0.4-0.2-0.5c-0.2-0.2-0.4-0.2-1-0.2h-0.4
	v1.5C46.7,69.5,46.8,69.5,47,69.5z"/>
<path class="st0" d="M53.5,71.7c0.4,0.1,0.7,0,1-0.2l0,0l-0.2,0.7h-2.9c0.2-0.1,0.2-0.2,0.2-0.5v-3.5c0-0.2-0.1-0.4-0.2-0.5h2.7
	l0.1,0.6l0,0C54,68,53.8,68,53.6,68h-1.4v1.4h1.4c0.1,0,0.2,0,0.3,0V70c-0.1-0.1-0.1-0.1-0.2-0.1c-0.1,0-0.3,0-0.4,0h-1.1v1.9
	L53.5,71.7z"/>
<path class="st0" d="M56.7,71.6v-3.5c0-0.2-0.1-0.4-0.2-0.5h1c-0.2,0.1-0.3,0.3-0.2,0.5v3.6h1.4c0.4,0,0.7,0,1-0.2l0,0l-0.2,0.7h-3
	C56.6,72,56.7,71.9,56.7,71.6z"/>
<path class="st0" d="M64.9,71.6v-3.5c0-0.2-0.1-0.4-0.2-0.5h1.3c0.3,0,0.6,0,0.9,0.1c0.4,0.1,0.7,0.6,0.7,1c0,0.6-0.4,0.9-1.1,1.1
	c0.1,0,0.2,0.1,0.2,0.2l0.2,0.2c0.1,0.1,0.2,0.2,0.2,0.3l0.8,1.1c0,0,0,0.1,0.1,0.1c0.1,0.1,0.2,0.2,0.2,0.3
	c0.1,0.1,0.2,0.1,0.3,0.2h-0.9l-1.2-1.7c-0.1-0.2-0.3-0.4-0.5-0.5c-0.2-0.1-0.4-0.1-0.6-0.1v1.8c0,0.3,0.1,0.4,0.2,0.5h-1
	C64.9,72,64.9,71.9,64.9,71.6z M65.9,69.5c0.2,0,0.3,0,0.5,0c0.4-0.1,0.6-0.4,0.6-0.8c0-0.2-0.1-0.4-0.2-0.5c-0.3-0.2-0.7-0.3-1-0.2
	h-0.4v1.5C65.6,69.5,65.7,69.5,65.9,69.5L65.9,69.5z"/>
<path class="st0" d="M72.5,71.7c0.4,0,0.7,0,1-0.2l0,0l-0.2,0.7h-2.9c0.2-0.1,0.2-0.2,0.2-0.5v-3.5c0-0.2-0.1-0.4-0.2-0.5h2.7
	l0.1,0.6l0,0C73.1,68,72.8,68,72.6,68h-1.4v1.4h1.4c0.1,0,0.2,0,0.3,0L73,70c-0.1-0.1-0.1-0.1-0.2-0.1c-0.1,0-0.3,0-0.4,0h-1.2v1.9
	L72.5,71.7z"/>
<path class="st0" d="M75.4,71.3c0.4,0.4,0.8,0.5,1.3,0.5c0.7,0,1.2-0.4,1.2-0.9c0-0.2-0.1-0.4-0.2-0.6c-0.2-0.1-0.2-0.2-0.9-0.4
	c-0.3-0.1-0.6-0.2-0.8-0.4c-0.3-0.2-0.5-0.5-0.5-0.8c0-0.8,0.6-1.2,1.6-1.2c0.3,0,0.6,0,0.9,0.1l0.1,0.6c-0.3-0.2-0.7-0.3-1.1-0.3
	c-0.6,0-1,0.3-1,0.7c0,0.2,0.1,0.3,0.2,0.4c0.3,0.2,0.6,0.4,0.9,0.5c0.4,0.1,0.7,0.2,1,0.5c0.2,0.2,0.4,0.5,0.4,0.8
	c0,0.9-0.7,1.4-1.8,1.4c-0.3,0-0.7,0-1-0.1h-0.1L75.4,71.3z"/>
<path class="st0" d="M80.4,69.9c-0.1-1.3,0.9-2.4,2.2-2.5c1.3-0.1,2.4,0.9,2.5,2.2c0,0.1,0,0.2,0,0.3c0,1.3-1,2.3-2.2,2.3
	c0,0-0.1,0-0.1,0c-1.2,0.1-2.3-0.9-2.3-2.1c0,0,0-0.1,0-0.1V69.9z M82.7,71.9c1.1-0.2,1.8-1.2,1.6-2.3c-0.1-0.8-0.8-1.5-1.6-1.6
	c-1.1,0.2-1.8,1.2-1.6,2.3C81.3,71.1,81.9,71.7,82.7,71.9z"/>
<path class="st0" d="M87.5,71.6v-3.5c0-0.2-0.1-0.4-0.2-0.5h1.3c0.3,0,0.6,0,0.9,0.1c0.4,0.1,0.7,0.5,0.7,1c0,0.6-0.4,0.9-1.1,1.1
	c0.1,0,0.2,0.1,0.2,0.2c0.1,0,0.1,0.1,0.2,0.2c0.1,0.1,0.2,0.2,0.2,0.3l0.8,1.2c0,0,0,0.1,0.1,0.1c0.1,0.1,0.2,0.2,0.2,0.3
	c0.1,0.1,0.2,0.1,0.3,0.2h-0.9l-1.2-1.7c-0.1-0.2-0.3-0.4-0.5-0.5c-0.2-0.1-0.4-0.2-0.6-0.2v1.8c0,0.3,0.1,0.4,0.2,0.5h-1
	C87.4,72,87.5,71.9,87.5,71.6z M88.5,69.5c0.2,0,0.3,0,0.5,0c0.4-0.1,0.6-0.4,0.6-0.8c0-0.2-0.1-0.4-0.2-0.5c-0.3-0.2-0.6-0.3-1-0.2
	H88v1.5C88.2,69.5,88.3,69.5,88.5,69.5L88.5,69.5z"/>
<path class="st0" d="M94.3,71.6V68h-0.8c-0.2,0-0.5,0.1-0.6,0.3l0.1-0.6h3.3l0.1,0.6c-0.1-0.2-0.4-0.3-0.6-0.3h-0.8v3.6
	c0,0.3,0,0.4,0.2,0.5h-1C94.2,72,94.3,71.9,94.3,71.6z"/>
<path class="st0" d="M101.6,71.6v-3.5c0-0.2-0.1-0.4-0.2-0.5h1.6c0.8,0,1.3,0.4,1.3,1.1c0,0.4-0.3,0.8-0.7,0.9
	c0.2,0,0.4,0.1,0.6,0.3c0.3,0.2,0.4,0.6,0.4,0.9c0,0.4-0.2,0.8-0.5,1.1c-0.4,0.2-0.8,0.3-1.3,0.3h-1.5
	C101.5,72,101.7,71.8,101.6,71.6z M102.6,69.4c0.3,0,0.6,0,0.8-0.1c0.2-0.1,0.4-0.4,0.3-0.6c0-0.5-0.3-0.7-0.9-0.7h-0.8v1.4
	L102.6,69.4z M102.7,71.7c0.2,0,0.5,0,0.7,0c0.4-0.1,0.7-0.5,0.7-0.9c0-0.3-0.1-0.6-0.3-0.8c-0.3-0.2-0.6-0.3-1-0.2h-0.7v1.9
	L102.7,71.7z"/>
<path class="st0" d="M107.8,72.1c0.2-0.1,0.2-0.2,0.2-0.5V70l-1-1.8l-0.2-0.3c-0.1-0.1-0.2-0.2-0.3-0.3l0,0h1
	c-0.1,0.1-0.1,0.1-0.1,0.2c0,0.1,0,0.2,0.1,0.3l0.9,1.5l0.9-1.5c0.1-0.1,0.1-0.2,0.1-0.2c0-0.1,0-0.1-0.1-0.2h0.9
	c-0.2,0.2-0.3,0.2-0.6,0.7l-1,1.6v1.6c0,0.3,0,0.4,0.2,0.5H107.8z"/>
<path class="st0" d="M115.1,72.1c0.2-0.1,0.2-0.2,0.2-0.5v-3.5c0-0.2-0.1-0.4-0.2-0.5h1c-0.2,0.1-0.3,0.3-0.2,0.5v1.3l1.3-1.4
	c0.1-0.1,0.2-0.2,0.2-0.3c0-0.1,0-0.1-0.1-0.2h1c-0.1,0-0.2,0.1-0.2,0.1c-0.1,0.1-0.3,0.2-0.4,0.3l-0.2,0.2l-1.2,1.2
	c0.2,0,0.4,0.1,0.5,0.2c0.2,0.1,0.4,0.3,0.5,0.5l1,1.4c0.2,0.2,0.4,0.4,0.7,0.5h-0.9l-1-1.4c-0.2-0.3-0.4-0.5-0.7-0.7
	c-0.2-0.1-0.4-0.2-0.6-0.2v1.8c0,0.3,0.1,0.4,0.2,0.5H115.1z"/>
<path class="st0" d="M120.9,71.8l1.5-3.7c0-0.1,0.1-0.2,0.1-0.3c0-0.1,0-0.2-0.1-0.2h0.7l1.6,4l0.1,0.3c0.1,0.1,0.2,0.2,0.3,0.3h-1
	c0.1-0.1,0.1-0.1,0.1-0.2c0-0.1,0-0.2-0.1-0.3l-0.5-1.3h-1.7l-0.5,1.3c0,0.1,0,0.1,0,0.2c0,0.1,0,0.1,0.1,0.2h-0.8
	C120.7,72,120.8,71.9,120.9,71.8z M123.4,70l-0.7-1.8L122,70H123.4z"/>
<path class="st0" d="M127,71.6v-3.5c0-0.2-0.1-0.4-0.2-0.5h1.3c0.3,0,0.6,0,0.9,0.1c0.4,0.1,0.7,0.6,0.7,1c0,0.6-0.4,0.9-1.1,1.1
	c0.1,0,0.2,0.1,0.2,0.2c0.1,0,0.1,0.1,0.2,0.2c0.1,0.1,0.1,0.2,0.2,0.3l0.8,1.2c0,0,0,0.1,0.1,0.1c0.1,0.1,0.2,0.2,0.2,0.3
	c0.1,0.1,0.2,0.1,0.4,0.2h-0.9l-1.1-1.7c-0.1-0.2-0.3-0.4-0.5-0.5c-0.2-0.1-0.4-0.1-0.6-0.1v1.8c0,0.3,0.1,0.4,0.2,0.5h-1
	C126.9,72,127,71.9,127,71.6z M128,69.5c0.2,0,0.3,0,0.5,0c0.4-0.1,0.6-0.4,0.6-0.8c0-0.2-0.1-0.4-0.2-0.5c-0.3-0.2-0.6-0.2-0.9-0.2
	h-0.4v1.5C127.7,69.5,127.8,69.5,128,69.5L128,69.5z"/>
<path class="st0" d="M132.6,71.6v-3.5c0-0.2-0.1-0.4-0.2-0.5h1c-0.2,0.1-0.3,0.3-0.2,0.5v3.5c0,0.3,0.1,0.4,0.2,0.5h-1
	C132.5,72,132.6,71.9,132.6,71.6z"/>
<path class="st0" d="M135.4,71.3c0.4,0.4,0.8,0.5,1.3,0.5c0.7,0,1.2-0.4,1.2-0.9c0-0.2-0.1-0.4-0.2-0.6c-0.2-0.1-0.2-0.2-0.9-0.4
	c-0.3-0.1-0.6-0.2-0.8-0.4c-0.3-0.2-0.5-0.5-0.5-0.8c0-0.8,0.6-1.2,1.6-1.2c0.3,0,0.6,0,0.9,0.1l0.1,0.6c-0.3-0.2-0.7-0.3-1.1-0.3
	c-0.6,0-1,0.3-1,0.7c0,0.2,0.1,0.3,0.2,0.4c0.3,0.2,0.6,0.4,0.9,0.5c0.4,0.1,0.7,0.2,1,0.5c0.2,0.2,0.4,0.5,0.4,0.8
	c0,0.9-0.7,1.4-1.9,1.4c-0.4,0-0.7,0-1.1-0.1h-0.1L135.4,71.3z"/>
<path class="st0" d="M140.7,71.6l0.4-3.4c0-0.1,0-0.2,0-0.3c0-0.1-0.1-0.3-0.2-0.4h0.8l1.4,3.4l1.4-3.4h0.8
	c-0.1,0.1-0.2,0.2-0.2,0.4c0,0.1,0,0.1,0,0.2l0.4,3.3c0,0.2,0.1,0.4,0.3,0.6h-0.9c0.1-0.1,0.2-0.2,0.2-0.4c0-0.1,0-0.1,0-0.2
	l-0.4-3.2l-1.6,3.8l-1.6-3.8l-0.4,3.3v0.1c0,0.1,0.1,0.3,0.2,0.3h-0.8C140.6,72,140.7,71.9,140.7,71.6z"/>
<path class="st0" d="M147.8,71.8l1.5-3.7c0-0.1,0.1-0.2,0.1-0.3c0-0.1,0-0.2-0.1-0.2h0.7l1.6,4c0,0.1,0.1,0.2,0.1,0.3
	c0.1,0.1,0.2,0.2,0.3,0.3h-1c0.1-0.1,0.1-0.1,0.1-0.2c0-0.1,0-0.2-0.1-0.3l-0.5-1.3h-1.7l-0.5,1.3c0,0.1,0,0.1-0.1,0.2
	c0,0.1,0,0.1,0.1,0.2h-0.8C147.6,72,147.7,71.9,147.8,71.8z M150.3,70l-0.7-1.8l-0.7,1.8H150.3z"/>
</svg>
